<svg width="360" height="800" viewBox="0 0 360 800" fill="none" xmlns="http://www.w3.org/2000/svg">
<g clip-path="url(#clip0_981_7569)">
<rect width="360" height="800" fill="#2C6976"/>
<g clip-path="url(#clip1_981_7569)">
<path d="M216.469 195.581C219.656 197.873 225.349 194.576 228.865 192.54C229.482 192.182 230.033 191.863 230.49 191.621C243.948 184.486 248.994 179.474 250.231 179.563C251.546 179.658 248.56 185.514 246.8 200.706C246.744 201.193 246.65 201.79 246.543 202.459C245.94 206.269 244.964 212.439 248.496 214.24C249.928 214.97 250.941 215.364 252.795 214.896C255.861 214.121 258.157 211.692 259.446 208.447C264.219 196.428 262.895 182.777 257.971 173.979C259.482 172.432 261.099 169.971 262.601 168.338C266.914 163.648 271.23 158.94 275.556 154.247C275.356 160.795 276.104 166.608 276.695 172.974C277.377 180.319 278.247 187.733 280.334 193.532C281.754 197.478 284.012 203.325 287.022 202.725C289.877 202.156 292.911 198.075 294.037 192.137C295.431 184.791 294.901 174.482 293.691 168.226C292.156 160.291 286.941 153.245 280.401 149.842C282.785 147.176 287.194 140.883 289.497 138.12C293.887 132.852 296.856 129.788 300.593 125.89C300.249 130.106 299.932 141.528 301.464 149.936C301.544 150.375 301.615 150.921 301.695 151.532C302.151 155.017 302.888 160.66 307.117 161.073C308.83 161.24 310.008 161.252 311.823 160.249C314.825 158.588 316.544 155.749 316.971 152.531C318.669 139.725 312.432 127.569 303.814 122.002C309.19 116.866 313.469 112.285 320.27 102.058C320.02 107.161 321.14 112.312 322.044 116.845C322.42 118.728 322.795 120.611 323.078 122.584C324.262 130.851 325.668 139.184 328.408 145.619C330.273 149.998 333.215 156.475 336.692 155.616C339.991 154.801 343.312 150.005 344.311 143.22C345.608 134.41 344.515 123.728 342.641 116.196C341.064 109.854 336.536 103.063 331.605 99.6663C331.196 99.3845 330.79 99.0953 330.384 98.8063C328.846 97.7093 327.278 96.3573 325.316 95.9081C326.896 93.9694 335.918 81.5467 336.546 79.5585C336.874 78.521 336.633 77.7736 335.303 77.2323C334.59 76.9421 334.385 77.1926 330.475 81.7697C328.141 84.681 325.257 88.2624 322.982 91.07C321.974 89.4614 320.339 88.3704 318.893 87.2437C318.501 86.9379 318.108 86.6318 317.722 86.3206C312.977 82.4955 305.313 80.09 298.494 80.2817C294.381 80.397 289.49 81.152 284.969 82.1519C284.318 82.2959 283.654 82.4385 282.981 82.583C279.154 83.4051 275.04 84.2885 271.382 85.8426C264.949 88.5756 261.092 92.9723 261.159 96.2969C261.23 99.8014 268.399 100.864 273.213 101.465C280.287 102.349 288.883 101.475 297.355 100.409C299.376 100.154 301.334 100.011 303.292 99.8678C307.292 99.5751 311.304 99.0048 315.37 98.3352C316.091 98.2163 316.761 98.0757 317.381 97.9156C308.128 111.604 306.251 113.906 301.397 118.554C301.357 118.185 300.265 117.647 299.906 117.33C292.224 110.562 278.628 107.734 266.415 112.612C263.349 113.836 260.987 116.189 260.114 119.458C259.586 121.434 259.899 122.548 260.5 124.13C261.985 128.033 267.739 127.295 271.292 126.839C271.915 126.758 272.472 126.687 272.925 126.651C282.624 125.881 295.444 121.966 297.986 120.941C298.209 120.852 299.033 120.246 299.856 120.432C298.93 121.56 295.971 125.26 291.002 131.223C289.843 132.613 279.511 143.816 279.248 143.575C273.796 138.578 265.113 136.073 256.939 137.112C250.16 137.973 240.174 140.579 233.193 144.208C227.671 147.079 224.578 151.117 224.9 153.905C225.241 156.843 231.72 157.094 236.062 157.169C242.442 157.279 250.042 155.776 257.514 154.123C259.298 153.728 261.033 153.432 262.768 153.137C264.392 152.861 266.016 152.585 267.678 152.227C269.035 151.935 270.436 151.561 271.83 151.19C272.173 151.098 272.515 151.008 272.856 150.918C270.523 153.461 268.162 155.992 265.783 158.542C263.573 160.912 261.346 163.298 259.11 165.729C257.496 167.484 255.867 169.151 254.176 170.882C253.967 171.093 253.761 171.307 253.553 171.52C242.785 170.424 228.121 174.733 217.807 183.933C215.123 186.327 213.645 189.254 214.106 192.178C214.385 193.946 215.178 194.652 216.469 195.581Z" fill="#FFC100"/>
</g>
<circle cx="28.5" cy="91.5" r="12.5" fill="#FFC100"/>
<circle cx="283.5" cy="247.5" r="12.5" fill="#FFC100"/>
<g clip-path="url(#clip2_981_7569)">
<path d="M97.4737 468.647C93.8944 467.035 88.9711 471.399 85.9309 474.094C85.397 474.567 84.9212 474.989 84.521 475.317C72.7516 484.987 68.8045 490.903 67.5739 491.062C66.2663 491.231 68.0275 484.898 66.7295 469.659C66.6879 469.17 66.6616 468.567 66.6326 467.89C66.4655 464.036 66.1949 457.795 62.3746 456.733C60.8268 456.303 59.7549 456.118 58.0315 456.946C55.1804 458.316 53.4135 461.152 52.7963 464.589C50.5103 477.318 54.5238 490.432 61.0994 498.074C59.9267 499.891 58.832 502.625 57.6853 504.524C54.3908 509.979 51.0981 515.451 47.7924 520.911C46.6853 514.454 44.7957 508.906 42.9498 502.785C40.8201 495.723 38.4925 488.63 35.2934 483.362C33.1164 479.777 29.7408 474.497 26.9105 475.684C24.2254 476.81 22.064 481.412 22.1418 487.456C22.2378 494.932 24.808 504.93 27.2384 510.819C30.3214 518.29 36.8341 524.158 43.9213 526.192C42.1152 529.279 39.0461 536.323 37.3388 539.489C34.0848 545.525 31.7852 549.119 28.8985 553.683C28.3964 549.483 26.4346 538.226 23.2599 530.29C23.0944 529.876 22.9161 529.356 22.7158 528.772C21.5763 525.448 19.7307 520.065 15.5046 520.501C13.7926 520.678 12.6352 520.9 11.0566 522.245C8.44502 524.47 7.32507 527.594 7.5472 530.832C8.43108 543.72 16.9616 554.392 26.5155 558.133C22.269 564.237 18.9871 569.578 14.3561 580.953C13.5861 575.902 11.4637 571.077 9.67599 566.815C8.93303 565.044 8.19023 563.273 7.52072 561.396C4.71578 553.53 1.6791 545.643 -2.28648 539.882C-4.9851 535.962 -9.15656 530.199 -12.3936 531.733C-15.4646 533.188 -17.7648 538.549 -17.3937 545.397C-16.9119 554.289 -13.7151 564.54 -10.3806 571.548C-7.5728 577.45 -1.78476 583.205 3.72415 585.552C4.18113 585.747 4.63659 585.949 5.0913 586.152C6.81702 586.921 8.62298 587.934 10.6347 587.984C9.47245 590.198 3.10273 604.167 2.88242 606.241C2.76756 607.323 3.15235 608.007 4.56319 608.273C5.31975 608.416 5.47133 608.13 8.39252 602.866C10.1003 599.548 12.2135 595.465 13.8851 592.261C15.1927 593.637 17.0125 594.38 18.653 595.197C19.098 595.419 19.5441 595.641 19.9845 595.869C25.3954 598.673 33.3849 599.506 40.0294 597.961C44.038 597.03 48.6808 595.317 52.9123 593.437C53.5217 593.167 54.1443 592.895 54.7748 592.619C58.362 591.052 62.2171 589.368 65.4936 587.117C71.2536 583.159 74.1589 578.083 73.4318 574.838C72.6652 571.417 65.4278 571.803 60.5905 572.171C53.4822 572.712 45.2315 575.279 37.1418 578.01C35.2113 578.662 33.3209 579.191 31.4307 579.721C27.5688 580.804 23.7506 582.161 19.8994 583.626C19.2164 583.886 18.5879 584.157 18.0122 584.438C24.356 569.182 25.7379 566.552 29.5697 561.032C29.6829 561.386 30.8597 561.696 31.2749 561.934C40.1502 567.039 54.0369 567.105 65.0351 559.895C67.7955 558.085 69.6425 555.309 69.8478 551.931C69.9719 549.89 69.4438 548.861 68.5398 547.43C66.3083 543.9 60.8162 545.769 57.425 546.923C56.8297 547.125 56.2988 547.306 55.8619 547.431C46.51 550.116 34.7249 556.503 32.4372 558.013C32.2367 558.146 31.55 558.903 30.7061 558.885C31.389 557.595 33.553 553.38 37.2364 546.548C38.0953 544.955 45.9917 531.92 46.2982 532.104C52.6351 535.917 61.6428 536.643 69.4462 533.999C75.9187 531.807 85.1868 527.266 91.3057 522.32C96.1461 518.408 98.374 513.835 97.5035 511.168C96.5855 508.356 90.1854 509.399 85.9155 510.189C79.6408 511.351 72.4923 514.336 65.4982 517.443C63.829 518.184 62.1872 518.819 60.5457 519.454C59.0089 520.048 57.4725 520.642 55.9145 521.323C54.6429 521.879 53.344 522.524 52.0518 523.165C51.7344 523.323 51.4171 523.48 51.101 523.636C52.8811 520.68 54.6913 517.73 56.5156 514.757C58.21 511.995 59.9173 509.213 61.6247 506.386C62.8575 504.345 64.1222 502.387 65.4355 500.354C65.5976 500.106 65.7578 499.855 65.9189 499.606C76.6896 498.537 90.2027 491.397 98.4801 480.328C100.634 477.448 101.5 474.285 100.466 471.511C99.8419 469.835 98.9236 469.3 97.4737 468.647Z" fill="#FFDC70"/>
</g>
</g>
<defs>
<clipPath id="clip0_981_7569">
<rect width="360" height="800" fill="white"/>
</clipPath>
<clipPath id="clip1_981_7569">
<rect width="100" height="200" fill="white" transform="translate(254.307 260.045) rotate(-140.63)"/>
</clipPath>
<clipPath id="clip2_981_7569">
<rect width="100" height="200" fill="white" transform="translate(47.5664 413) rotate(27.8937)"/>
</clipPath>
</defs>
</svg>
