<svg width="136" height="224" viewBox="0 0 136 224" fill="none" xmlns="http://www.w3.org/2000/svg">
<g clip-path="url(#clip0_981_7586)">
<path d="M97.4737 55.6473C93.8944 54.035 88.9711 58.3991 85.9309 61.0938C85.397 61.5666 84.9212 61.9888 84.521 62.3174C72.7516 71.9874 68.8045 77.9032 67.5739 78.0619C66.2663 78.2308 68.0275 71.8976 66.7295 56.6589C66.6879 56.1703 66.6616 55.5673 66.6326 54.8904C66.4655 51.0365 66.1949 44.7953 62.3746 43.7332C60.8268 43.3028 59.7549 43.118 58.0315 43.946C55.1804 45.3156 53.4135 48.1522 52.7963 51.5887C50.5103 64.3178 54.5238 77.4318 61.0994 85.0743C59.9267 86.8914 58.832 89.6249 57.6853 91.5241C54.3908 96.9785 51.0981 102.451 47.7924 107.911C46.6853 101.454 44.7957 95.906 42.9498 89.7846C40.8201 82.7228 38.4925 75.6301 35.2934 70.3621C33.1164 66.7771 29.7408 61.4968 26.9105 62.6835C24.2254 63.8095 22.064 68.4117 22.1418 74.4556C22.2378 81.9318 24.808 91.9298 27.2384 97.8195C30.3214 105.29 36.8341 111.158 43.9213 113.192C42.1152 116.279 39.0461 123.323 37.3388 126.489C34.0848 132.525 31.7852 136.119 28.8985 140.683C28.3964 136.483 26.4346 125.226 23.2599 117.29C23.0944 116.876 22.9161 116.356 22.7158 115.772C21.5763 112.448 19.7307 107.065 15.5046 107.501C13.7926 107.678 12.6352 107.9 11.0566 109.245C8.44502 111.47 7.32507 114.594 7.5472 117.832C8.43108 130.72 16.9616 141.392 26.5155 145.133C22.269 151.237 18.9871 156.578 14.3561 167.953C13.5861 162.902 11.4637 158.077 9.67599 153.815C8.93303 152.044 8.19023 150.273 7.52072 148.396C4.71578 140.53 1.6791 132.643 -2.28648 126.882C-4.9851 122.962 -9.15656 117.199 -12.3936 118.733C-15.4646 120.188 -17.7648 125.549 -17.3937 132.397C-16.9119 141.289 -13.7151 151.54 -10.3806 158.548C-7.5728 164.45 -1.78476 170.205 3.72415 172.552C4.18113 172.747 4.63659 172.949 5.0913 173.152C6.81702 173.921 8.62298 174.934 10.6347 174.984C9.47245 177.198 3.10273 191.167 2.88242 193.241C2.76756 194.323 3.15235 195.007 4.56319 195.273C5.31975 195.416 5.47133 195.13 8.39252 189.866C10.1003 186.548 12.2135 182.465 13.8851 179.261C15.1927 180.637 17.0125 181.38 18.653 182.197C19.098 182.419 19.5441 182.641 19.9845 182.869C25.3954 185.673 33.3849 186.506 40.0294 184.961C44.038 184.03 48.6808 182.317 52.9123 180.437C53.5217 180.167 54.1443 179.895 54.7748 179.619C58.362 178.052 62.2171 176.368 65.4936 174.117C71.2536 170.159 74.1589 165.083 73.4318 161.838C72.6652 158.417 65.4278 158.803 60.5905 159.171C53.4822 159.712 45.2315 162.279 37.1418 165.01C35.2113 165.662 33.3209 166.191 31.4307 166.721C27.5688 167.804 23.7506 169.161 19.8994 170.626C19.2164 170.886 18.5879 171.157 18.0122 171.438C24.356 156.182 25.7379 153.552 29.5697 148.032C29.6829 148.386 30.8597 148.696 31.2749 148.934C40.1502 154.039 54.0369 154.105 65.0351 146.895C67.7955 145.085 69.6425 142.309 69.8478 138.931C69.9719 136.89 69.4438 135.861 68.5398 134.43C66.3083 130.9 60.8162 132.769 57.425 133.923C56.8297 134.125 56.2988 134.306 55.8619 134.431C46.51 137.116 34.7249 143.503 32.4372 145.013C32.2367 145.146 31.55 145.903 30.7061 145.885C31.389 144.595 33.553 140.38 37.2364 133.548C38.0953 131.955 45.9917 118.92 46.2982 119.104C52.6351 122.917 61.6428 123.643 69.4462 120.999C75.9187 118.807 85.1868 114.266 91.3057 109.32C96.1461 105.408 98.374 100.835 97.5035 98.1675C96.5855 95.356 90.1854 96.3987 85.9155 97.1893C79.6408 98.3507 72.4923 101.336 65.4982 104.443C63.829 105.184 62.1872 105.819 60.5457 106.454C59.0089 107.048 57.4725 107.642 55.9145 108.323C54.6429 108.879 53.344 109.524 52.0518 110.165C51.7344 110.323 51.4171 110.48 51.101 110.636C52.8811 107.68 54.6913 104.73 56.5156 101.757C58.21 98.9953 59.9173 96.2131 61.6247 93.3857C62.8575 91.3446 64.1222 89.3872 65.4355 87.3544C65.5976 87.1057 65.7578 86.8552 65.9189 86.6056C76.6896 85.537 90.2027 78.3966 98.4801 67.3284C100.634 64.4477 101.5 61.2851 100.466 58.5115C99.8419 56.8349 98.9236 56.3004 97.4737 55.6473Z" fill="#FFDC70"/>
</g>
<defs>
<clipPath id="clip0_981_7586">
<rect width="100" height="200" fill="white" transform="translate(47.5664) rotate(27.8937)"/>
</clipPath>
</defs>
</svg>
