<svg width="114" height="119" viewBox="0 0 114 119" fill="none" xmlns="http://www.w3.org/2000/svg">
<defs>
<linearGradient id="paint0_linear_711_6014" x1="73.5" y1="27.5" x2="104.547" y2="-28.4347" gradientUnits="userSpaceOnUse">
<stop stop-color="#68B2A0"/>
<stop offset="1" stop-color="#CDE0C9"/>
</linearGradient>
<linearGradient id="paint1_linear_711_6014" x1="73.5" y1="17.5" x2="104.547" y2="-38.4347" gradientUnits="userSpaceOnUse">
<stop stop-color="#68B2A0"/>
<stop offset="1" stop-color="#CDE0C9"/>
</linearGradient>
<linearGradient id="paint2_linear_711_6014" x1="85" y1="-34" x2="117.618" y2="85.841" gradientUnits="userSpaceOnUse">
<stop stop-color="#68B2A0"/>
<stop offset="1" stop-color="#CDE0C9"/>
</linearGradient>
</defs>
<path d="M77.9904 -8.92184C92.1904 -1.92184 108.19 5.87817 111.79 17.6782C115.19 29.2782 106.19 44.8782 100.59 61.2782C94.9904 77.6782 92.7904 95.0782 82.9904 105.078C73.3904 115.078 56.1904 117.878 38.3904 118.478C20.5904 119.278 2.39042 118.278 -13.4096 110.278C-29.2096 102.278 -42.6096 87.2782 -48.4096 69.6782C-54.4096 52.2782 -52.8096 32.0782 -44.2096 17.2782C-35.4096 2.27816 -19.6096 -7.32183 -4.40958 -14.3218C10.5904 -21.1218 24.7904 -25.1218 37.9904 -23.7218C51.3904 -22.5218 63.7904 -16.1218 77.9904 -8.92184Z" fill="url(#paint0_linear_711_6014)"/>
<path d="M77.9904 -18.9218C92.1904 -11.9218 108.19 -4.12183 111.79 7.67817C115.19 19.2782 106.19 34.8782 100.59 51.2782C94.9904 67.6782 92.7904 85.0782 82.9904 95.0782C73.3904 105.078 56.1904 107.878 38.3904 108.478C20.5904 109.278 2.39042 108.278 -13.4096 100.278C-29.2096 92.2782 -42.6096 77.2782 -48.4096 59.6782C-54.4096 42.2782 -52.8096 22.0782 -44.2096 7.27816C-35.4096 -7.72184 -19.6096 -17.3218 -4.40958 -24.3218C10.5904 -31.1218 24.7904 -35.1218 37.9904 -33.7218C51.3904 -32.5218 63.7904 -26.1218 77.9904 -18.9218Z" fill="url(#paint1_linear_711_6014)" stroke="url(#paint2_linear_711_6014)"/>

</svg>
