<svg width="196" height="196" viewBox="0 0 196 196" fill="none" xmlns="http://www.w3.org/2000/svg">
<path d="M196 0H0V196H196V0Z" fill="#EFEFEF"/>
<path d="M27.8756 21.7778H21.7778V27.8756H27.8756V21.7778Z" fill="black"/>
<path d="M33.9734 21.7778H27.8756V27.8756H33.9734V21.7778Z" fill="black"/>
<path d="M40.0712 21.7778H33.9734V27.8756H40.0712V21.7778Z" fill="black"/>
<path d="M46.1689 21.7778H40.0712V27.8756H46.1689V21.7778Z" fill="black"/>
<path d="M52.2667 21.7778H46.1689V27.8756H52.2667V21.7778Z" fill="black"/>
<path d="M58.3645 21.7778H52.2667V27.8756H58.3645V21.7778Z" fill="black"/>
<path d="M64.4623 21.7778H58.3645V27.8756H64.4623V21.7778Z" fill="black"/>
<path d="M76.6578 21.7778H70.5601V27.8756H76.6578V21.7778Z" fill="black"/>
<path d="M82.7556 21.7778H76.6578V27.8756H82.7556V21.7778Z" fill="black"/>
<path d="M107.147 21.7778H101.049V27.8756H107.147V21.7778Z" fill="black"/>
<path d="M125.44 21.7778H119.342V27.8756H125.44V21.7778Z" fill="black"/>
<path d="M137.636 21.7778H131.538V27.8756H137.636V21.7778Z" fill="black"/>
<path d="M143.733 21.7778H137.636V27.8756H143.733V21.7778Z" fill="black"/>
<path d="M149.831 21.7778H143.733V27.8756H149.831V21.7778Z" fill="black"/>
<path d="M155.929 21.7778H149.831V27.8756H155.929V21.7778Z" fill="black"/>
<path d="M162.027 21.7778H155.929V27.8756H162.027V21.7778Z" fill="black"/>
<path d="M168.124 21.7778H162.027V27.8756H168.124V21.7778Z" fill="black"/>
<path d="M174.222 21.7778H168.124V27.8756H174.222V21.7778Z" fill="black"/>
<path d="M27.8756 27.8756H21.7778V33.9734H27.8756V27.8756Z" fill="black"/>
<path d="M64.4623 27.8756H58.3645L58.3645 33.9734H64.4623V27.8756Z" fill="black"/>
<path d="M101.049 27.8756H94.9512V33.9734H101.049V27.8756Z" fill="black"/>
<path d="M107.147 27.8756H101.049V33.9734H107.147V27.8756Z" fill="black"/>
<path d="M125.44 27.8756H119.342V33.9734H125.44V27.8756Z" fill="black"/>
<path d="M137.636 27.8756H131.538V33.9734H137.636V27.8756Z" fill="black"/>
<path d="M174.222 27.8756H168.124V33.9734H174.222V27.8756Z" fill="black"/>
<path d="M27.8756 33.9734H21.7778V40.0712H27.8756V33.9734Z" fill="black"/>
<path d="M40.0712 33.9734H33.9734V40.0712H40.0712V33.9734Z" fill="black"/>
<path d="M46.1689 33.9734H40.0712V40.0712H46.1689V33.9734Z" fill="black"/>
<path d="M52.2667 33.9734H46.1689V40.0712H52.2667V33.9734Z" fill="black"/>
<path d="M64.4623 33.9734H58.3645V40.0712H64.4623V33.9734Z" fill="black"/>
<path d="M82.7556 33.9734H76.6578V40.0712H82.7556V33.9734Z" fill="black"/>
<path d="M88.8534 33.9734H82.7556V40.0712H88.8534V33.9734Z" fill="black"/>
<path d="M94.9512 33.9734H88.8534V40.0712H94.9512V33.9734Z" fill="black"/>
<path d="M101.049 33.9734H94.9512V40.0712H101.049V33.9734Z" fill="black"/>
<path d="M107.147 33.9734H101.049V40.0712H107.147V33.9734Z" fill="black"/>
<path d="M125.44 33.9734H119.342V40.0712H125.44V33.9734Z" fill="black"/>
<path d="M137.636 33.9734H131.538V40.0712H137.636V33.9734Z" fill="black"/>
<path d="M149.831 33.9734H143.733V40.0712H149.831V33.9734Z" fill="black"/>
<path d="M155.929 33.9734H149.831V40.0712H155.929V33.9734Z" fill="black"/>
<path d="M162.027 33.9734H155.929V40.0712H162.027V33.9734Z" fill="black"/>
<path d="M174.222 33.9734H168.124V40.0712H174.222V33.9734Z" fill="black"/>
<path d="M27.8756 40.0712H21.7778V46.1689H27.8756V40.0712Z" fill="black"/>
<path d="M40.0712 40.0712H33.9734V46.1689H40.0712V40.0712Z" fill="black"/>
<path d="M46.1689 40.0712H40.0712V46.1689H46.1689V40.0712Z" fill="black"/>
<path d="M52.2667 40.0712H46.1689V46.1689H52.2667V40.0712Z" fill="black"/>
<path d="M64.4623 40.0712H58.3645V46.1689H64.4623V40.0712Z" fill="black"/>
<path d="M82.7556 40.0712H76.6578V46.1689H82.7556V40.0712Z" fill="black"/>
<path d="M88.8534 40.0712H82.7556V46.1689H88.8534V40.0712Z" fill="black"/>
<path d="M107.147 40.0712H101.049V46.1689H107.147V40.0712Z" fill="black"/>
<path d="M137.636 40.0712H131.538V46.1689H137.636V40.0712Z" fill="black"/>
<path d="M149.831 40.0712H143.733V46.1689H149.831V40.0712Z" fill="black"/>
<path d="M155.929 40.0712H149.831V46.1689H155.929V40.0712Z" fill="black"/>
<path d="M162.027 40.0712H155.929V46.1689H162.027V40.0712Z" fill="black"/>
<path d="M174.222 40.0712H168.124V46.1689H174.222V40.0712Z" fill="black"/>
<path d="M27.8756 46.1689H21.7778V52.2667H27.8756V46.1689Z" fill="black"/>
<path d="M40.0712 46.1689H33.9734V52.2667H40.0712V46.1689Z" fill="black"/>
<path d="M46.1689 46.1689H40.0712V52.2667H46.1689V46.1689Z" fill="black"/>
<path d="M52.2667 46.1689H46.1689V52.2667H52.2667V46.1689Z" fill="black"/>
<path d="M64.4623 46.1689H58.3645V52.2667H64.4623V46.1689Z" fill="black"/>
<path d="M76.6578 46.1689H70.5601V52.2667H76.6578V46.1689Z" fill="black"/>
<path d="M88.8534 46.1689H82.7556V52.2667H88.8534V46.1689Z" fill="black"/>
<path d="M94.9512 46.1689H88.8534V52.2667H94.9512V46.1689Z" fill="black"/>
<path d="M101.049 46.1689H94.9512V52.2667H101.049V46.1689Z" fill="black"/>
<path d="M113.244 46.1689H107.147V52.2667H113.244V46.1689Z" fill="black"/>
<path d="M137.636 46.1689H131.538V52.2667H137.636V46.1689Z" fill="black"/>
<path d="M149.831 46.1689H143.733V52.2667H149.831V46.1689Z" fill="black"/>
<path d="M155.929 46.1689H149.831V52.2667H155.929V46.1689Z" fill="black"/>
<path d="M162.027 46.1689H155.929V52.2667H162.027V46.1689Z" fill="black"/>
<path d="M174.222 46.1689H168.124V52.2667H174.222V46.1689Z" fill="black"/>
<path d="M27.8756 52.2667H21.7778V58.3645H27.8756V52.2667Z" fill="black"/>
<path d="M64.4623 52.2667H58.3645V58.3645H64.4623V52.2667Z" fill="black"/>
<path d="M113.244 52.2667H107.147V58.3645H113.244V52.2667Z" fill="black"/>
<path d="M137.636 52.2667H131.538V58.3645H137.636V52.2667Z" fill="black"/>
<path d="M174.222 52.2667H168.124V58.3645H174.222V52.2667Z" fill="black"/>
<path d="M27.8756 58.3645H21.7778V64.4623H27.8756V58.3645Z" fill="black"/>
<path d="M33.9734 58.3645L27.8756 58.3645V64.4623H33.9734V58.3645Z" fill="black"/>
<path d="M40.0712 58.3645H33.9734V64.4623H40.0712V58.3645Z" fill="black"/>
<path d="M46.1689 58.3645H40.0712V64.4623H46.1689V58.3645Z" fill="black"/>
<path d="M52.2667 58.3645H46.1689V64.4623H52.2667V58.3645Z" fill="black"/>
<path d="M58.3645 58.3645L52.2667 58.3645V64.4623H58.3645L58.3645 58.3645Z" fill="black"/>
<path d="M64.4623 58.3645H58.3645L58.3645 64.4623H64.4623V58.3645Z" fill="black"/>
<path d="M76.6578 58.3645H70.5601V64.4623H76.6578V58.3645Z" fill="black"/>
<path d="M88.8534 58.3645H82.7556V64.4623H88.8534V58.3645Z" fill="black"/>
<path d="M101.049 58.3645H94.9512V64.4623H101.049V58.3645Z" fill="black"/>
<path d="M113.244 58.3645H107.147V64.4623H113.244V58.3645Z" fill="black"/>
<path d="M125.44 58.3645H119.342V64.4623H125.44V58.3645Z" fill="black"/>
<path d="M137.636 58.3645H131.538V64.4623H137.636V58.3645Z" fill="black"/>
<path d="M143.733 58.3645L137.636 58.3645V64.4623H143.733V58.3645Z" fill="black"/>
<path d="M149.831 58.3645H143.733V64.4623H149.831V58.3645Z" fill="black"/>
<path d="M155.929 58.3645H149.831V64.4623H155.929V58.3645Z" fill="black"/>
<path d="M162.027 58.3645H155.929V64.4623H162.027V58.3645Z" fill="black"/>
<path d="M168.124 58.3645L162.027 58.3645V64.4623H168.124V58.3645Z" fill="black"/>
<path d="M174.222 58.3645H168.124V64.4623H174.222V58.3645Z" fill="black"/>
<path d="M76.6578 64.4623H70.5601V70.5601H76.6578V64.4623Z" fill="black"/>
<path d="M88.8534 64.4623H82.7556V70.5601H88.8534V64.4623Z" fill="black"/>
<path d="M101.049 64.4623H94.9512V70.5601H101.049V64.4623Z" fill="black"/>
<path d="M107.147 64.4623H101.049V70.5601H107.147V64.4623Z" fill="black"/>
<path d="M119.342 64.4623H113.244L113.244 70.5601H119.342V64.4623Z" fill="black"/>
<path d="M125.44 64.4623H119.342V70.5601H125.44V64.4623Z" fill="black"/>
<path d="M27.8756 70.5601H21.7778V76.6578H27.8756V70.5601Z" fill="black"/>
<path d="M46.1689 70.5601H40.0712V76.6578H46.1689V70.5601Z" fill="black"/>
<path d="M52.2667 70.5601H46.1689V76.6578H52.2667V70.5601Z" fill="black"/>
<path d="M58.3645 70.5601H52.2667V76.6578H58.3645V70.5601Z" fill="black"/>
<path d="M64.4623 70.5601H58.3645V76.6578H64.4623V70.5601Z" fill="black"/>
<path d="M70.5601 70.5601H64.4623V76.6578H70.5601V70.5601Z" fill="black"/>
<path d="M76.6578 70.5601H70.5601V76.6578H76.6578V70.5601Z" fill="black"/>
<path d="M82.7556 70.5601H76.6578V76.6578H82.7556V70.5601Z" fill="black"/>
<path d="M107.147 70.5601H101.049V76.6578H107.147V70.5601Z" fill="black"/>
<path d="M125.44 70.5601H119.342V76.6578H125.44V70.5601Z" fill="black"/>
<path d="M131.538 70.5601H125.44V76.6578H131.538V70.5601Z" fill="black"/>
<path d="M137.636 70.5601H131.538V76.6578H137.636V70.5601Z" fill="black"/>
<path d="M149.831 70.5601H143.733V76.6578H149.831V70.5601Z" fill="black"/>
<path d="M174.222 70.5601H168.124V76.6578H174.222V70.5601Z" fill="black"/>
<path d="M33.9734 76.6578H27.8756V82.7556H33.9734V76.6578Z" fill="black"/>
<path d="M46.1689 76.6578H40.0712V82.7556H46.1689V76.6578Z" fill="black"/>
<path d="M52.2667 76.6578H46.1689V82.7556H52.2667V76.6578Z" fill="black"/>
<path d="M70.5601 76.6578H64.4623V82.7556H70.5601V76.6578Z" fill="black"/>
<path d="M76.6578 76.6578H70.5601V82.7556H76.6578V76.6578Z" fill="black"/>
<path d="M101.049 76.6578H94.9512V82.7556H101.049V76.6578Z" fill="black"/>
<path d="M119.342 76.6578H113.244V82.7556H119.342V76.6578Z" fill="black"/>
<path d="M131.538 76.6578H125.44V82.7556H131.538V76.6578Z" fill="black"/>
<path d="M137.636 76.6578H131.538V82.7556H137.636V76.6578Z" fill="black"/>
<path d="M149.831 76.6578H143.733V82.7556H149.831V76.6578Z" fill="black"/>
<path d="M155.929 76.6578H149.831V82.7556H155.929V76.6578Z" fill="black"/>
<path d="M162.027 76.6578H155.929V82.7556H162.027V76.6578Z" fill="black"/>
<path d="M168.124 76.6578H162.027V82.7556H168.124V76.6578Z" fill="black"/>
<path d="M174.222 76.6578H168.124V82.7556H174.222V76.6578Z" fill="black"/>
<path d="M27.8756 82.7556H21.7778V88.8534H27.8756V82.7556Z" fill="black"/>
<path d="M33.9734 82.7556H27.8756V88.8534H33.9734V82.7556Z" fill="black"/>
<path d="M46.1689 82.7556H40.0712V88.8534H46.1689V82.7556Z" fill="black"/>
<path d="M52.2667 82.7556H46.1689V88.8534H52.2667V82.7556Z" fill="black"/>
<path d="M58.3645 82.7556H52.2667V88.8534H58.3645V82.7556Z" fill="black"/>
<path d="M64.4623 82.7556H58.3645V88.8534H64.4623V82.7556Z" fill="black"/>
<path d="M70.5601 82.7556H64.4623V88.8534H70.5601V82.7556Z" fill="black"/>
<path d="M82.7556 82.7556H76.6578V88.8534H82.7556V82.7556Z" fill="black"/>
<path d="M94.9512 82.7556H88.8534V88.8534H94.9512V82.7556Z" fill="black"/>
<path d="M101.049 82.7556H94.9512V88.8534H101.049V82.7556Z" fill="black"/>
<path d="M113.244 82.7556H107.147V88.8534H113.244L113.244 82.7556Z" fill="black"/>
<path d="M125.44 82.7556H119.342V88.8534H125.44V82.7556Z" fill="black"/>
<path d="M131.538 82.7556H125.44V88.8534H131.538V82.7556Z" fill="black"/>
<path d="M137.636 82.7556H131.538V88.8534H137.636V82.7556Z" fill="black"/>
<path d="M143.733 82.7556H137.636V88.8534H143.733V82.7556Z" fill="black"/>
<path d="M149.831 82.7556H143.733V88.8534H149.831V82.7556Z" fill="black"/>
<path d="M155.929 82.7556H149.831V88.8534H155.929V82.7556Z" fill="black"/>
<path d="M162.027 82.7556H155.929V88.8534H162.027V82.7556Z" fill="black"/>
<path d="M168.124 82.7556H162.027V88.8534H168.124V82.7556Z" fill="black"/>
<path d="M27.8756 88.8534H21.7778V94.9512H27.8756V88.8534Z" fill="black"/>
<path d="M52.2667 88.8534H46.1689V94.9512H52.2667V88.8534Z" fill="black"/>
<path d="M58.3645 88.8534H52.2667V94.9512H58.3645V88.8534Z" fill="black"/>
<path d="M70.5601 88.8534H64.4623V94.9512H70.5601V88.8534Z" fill="black"/>
<path d="M82.7556 88.8534H76.6578V94.9512H82.7556V88.8534Z" fill="black"/>
<path d="M88.8534 88.8534H82.7556V94.9512H88.8534V88.8534Z" fill="black"/>
<path d="M113.244 88.8534H107.147V94.9512H113.244V88.8534Z" fill="black"/>
<path d="M119.342 88.8534H113.244V94.9512H119.342V88.8534Z" fill="black"/>
<path d="M149.831 88.8534H143.733V94.9512H149.831V88.8534Z" fill="black"/>
<path d="M162.027 88.8534H155.929V94.9512H162.027V88.8534Z" fill="black"/>
<path d="M168.124 88.8534H162.027V94.9512H168.124V88.8534Z" fill="black"/>
<path d="M27.8756 94.9512H21.7778V101.049H27.8756V94.9512Z" fill="black"/>
<path d="M46.1689 94.9512H40.0712V101.049H46.1689V94.9512Z" fill="black"/>
<path d="M52.2667 94.9512H46.1689V101.049H52.2667V94.9512Z" fill="black"/>
<path d="M58.3645 94.9512H52.2667V101.049H58.3645V94.9512Z" fill="black"/>
<path d="M64.4623 94.9512H58.3645V101.049H64.4623V94.9512Z" fill="black"/>
<path d="M70.5601 94.9512H64.4623V101.049H70.5601V94.9512Z" fill="black"/>
<path d="M76.6578 94.9512H70.5601V101.049H76.6578V94.9512Z" fill="black"/>
<path d="M88.8534 94.9512H82.7556V101.049H88.8534V94.9512Z" fill="black"/>
<path d="M94.9512 94.9512H88.8534V101.049H94.9512V94.9512Z" fill="black"/>
<path d="M107.147 94.9512H101.049V101.049H107.147V94.9512Z" fill="black"/>
<path d="M113.244 94.9512H107.147V101.049H113.244V94.9512Z" fill="black"/>
<path d="M125.44 94.9512H119.342V101.049H125.44V94.9512Z" fill="black"/>
<path d="M143.733 94.9512H137.636V101.049H143.733V94.9512Z" fill="black"/>
<path d="M155.929 94.9512H149.831V101.049H155.929V94.9512Z" fill="black"/>
<path d="M162.027 94.9512H155.929V101.049H162.027V94.9512Z" fill="black"/>
<path d="M174.222 94.9512H168.124V101.049H174.222V94.9512Z" fill="black"/>
<path d="M27.8756 101.049H21.7778V107.147H27.8756V101.049Z" fill="black"/>
<path d="M33.9734 101.049H27.8756V107.147H33.9734V101.049Z" fill="black"/>
<path d="M70.5601 101.049H64.4623V107.147H70.5601V101.049Z" fill="black"/>
<path d="M76.6578 101.049H70.5601V107.147H76.6578V101.049Z" fill="black"/>
<path d="M82.7556 101.049H76.6578V107.147H82.7556V101.049Z" fill="black"/>
<path d="M101.049 101.049H94.9512V107.147H101.049V101.049Z" fill="black"/>
<path d="M113.244 101.049H107.147V107.147H113.244V101.049Z" fill="black"/>
<path d="M119.342 101.049H113.244V107.147H119.342V101.049Z" fill="black"/>
<path d="M125.44 101.049H119.342V107.147H125.44V101.049Z" fill="black"/>
<path d="M131.538 101.049H125.44V107.147H131.538V101.049Z" fill="black"/>
<path d="M149.831 101.049H143.733V107.147H149.831V101.049Z" fill="black"/>
<path d="M162.027 101.049H155.929V107.147H162.027V101.049Z" fill="black"/>
<path d="M168.124 101.049H162.027V107.147H168.124V101.049Z" fill="black"/>
<path d="M174.222 101.049H168.124V107.147H174.222V101.049Z" fill="black"/>
<path d="M27.8756 107.147H21.7778V113.244H27.8756V107.147Z" fill="black"/>
<path d="M33.9734 107.147H27.8756V113.244H33.9734V107.147Z" fill="black"/>
<path d="M40.0712 107.147H33.9734V113.244H40.0712V107.147Z" fill="black"/>
<path d="M64.4623 107.147H58.3645V113.244H64.4623V107.147Z" fill="black"/>
<path d="M82.7556 107.147H76.6578V113.244H82.7556V107.147Z" fill="black"/>
<path d="M94.9512 107.147H88.8534V113.244H94.9512V107.147Z" fill="black"/>
<path d="M101.049 107.147H94.9512V113.244H101.049V107.147Z" fill="black"/>
<path d="M113.244 107.147H107.147V113.244H113.244V107.147Z" fill="black"/>
<path d="M131.538 107.147H125.44V113.244H131.538V107.147Z" fill="black"/>
<path d="M143.733 107.147H137.636V113.244H143.733V107.147Z" fill="black"/>
<path d="M149.831 107.147H143.733V113.244H149.831V107.147Z" fill="black"/>
<path d="M162.027 107.147H155.929V113.244H162.027V107.147Z" fill="black"/>
<path d="M33.9734 113.244H27.8756V119.342H33.9734V113.244Z" fill="black"/>
<path d="M70.5601 113.244L64.4623 113.244V119.342H70.5601V113.244Z" fill="black"/>
<path d="M101.049 113.244H94.9512V119.342H101.049V113.244Z" fill="black"/>
<path d="M113.244 113.244H107.147V119.342H113.244V113.244Z" fill="black"/>
<path d="M119.342 113.244L113.244 113.244V119.342H119.342V113.244Z" fill="black"/>
<path d="M137.636 113.244H131.538V119.342H137.636V113.244Z" fill="black"/>
<path d="M149.831 113.244H143.733V119.342H149.831V113.244Z" fill="black"/>
<path d="M168.124 113.244L162.027 113.244V119.342H168.124V113.244Z" fill="black"/>
<path d="M27.8756 119.342H21.7778V125.44H27.8756V119.342Z" fill="black"/>
<path d="M58.3645 119.342H52.2667V125.44H58.3645V119.342Z" fill="black"/>
<path d="M64.4623 119.342H58.3645V125.44H64.4623V119.342Z" fill="black"/>
<path d="M70.5601 119.342H64.4623V125.44H70.5601V119.342Z" fill="black"/>
<path d="M82.7556 119.342H76.6578V125.44H82.7556V119.342Z" fill="black"/>
<path d="M88.8534 119.342H82.7556V125.44H88.8534V119.342Z" fill="black"/>
<path d="M101.049 119.342H94.9512V125.44H101.049V119.342Z" fill="black"/>
<path d="M119.342 119.342H113.244L113.244 125.44H119.342V119.342Z" fill="black"/>
<path d="M125.44 119.342H119.342V125.44H125.44V119.342Z" fill="black"/>
<path d="M131.538 119.342H125.44V125.44H131.538V119.342Z" fill="black"/>
<path d="M137.636 119.342H131.538V125.44H137.636V119.342Z" fill="black"/>
<path d="M143.733 119.342H137.636V125.44H143.733V119.342Z" fill="black"/>
<path d="M149.831 119.342H143.733V125.44H149.831V119.342Z" fill="black"/>
<path d="M155.929 119.342H149.831V125.44H155.929V119.342Z" fill="black"/>
<path d="M168.124 119.342H162.027V125.44H168.124V119.342Z" fill="black"/>
<path d="M76.6578 125.44H70.5601V131.538H76.6578V125.44Z" fill="black"/>
<path d="M88.8534 125.44H82.7556V131.538H88.8534V125.44Z" fill="black"/>
<path d="M101.049 125.44H94.9512V131.538H101.049V125.44Z" fill="black"/>
<path d="M119.342 125.44H113.244V131.538H119.342V125.44Z" fill="black"/>
<path d="M125.44 125.44H119.342V131.538H125.44V125.44Z" fill="black"/>
<path d="M149.831 125.44H143.733V131.538H149.831V125.44Z" fill="black"/>
<path d="M155.929 125.44H149.831V131.538H155.929V125.44Z" fill="black"/>
<path d="M162.027 125.44H155.929V131.538H162.027V125.44Z" fill="black"/>
<path d="M27.8756 131.538H21.7778V137.636H27.8756V131.538Z" fill="black"/>
<path d="M33.9734 131.538H27.8756V137.636H33.9734V131.538Z" fill="black"/>
<path d="M40.0712 131.538H33.9734V137.636H40.0712V131.538Z" fill="black"/>
<path d="M46.1689 131.538H40.0712V137.636H46.1689V131.538Z" fill="black"/>
<path d="M52.2667 131.538H46.1689V137.636H52.2667V131.538Z" fill="black"/>
<path d="M58.3645 131.538H52.2667V137.636H58.3645V131.538Z" fill="black"/>
<path d="M64.4623 131.538H58.3645V137.636H64.4623V131.538Z" fill="black"/>
<path d="M76.6578 131.538H70.5601V137.636H76.6578V131.538Z" fill="black"/>
<path d="M101.049 131.538H94.9512V137.636H101.049V131.538Z" fill="black"/>
<path d="M119.342 131.538H113.244V137.636H119.342V131.538Z" fill="black"/>
<path d="M125.44 131.538H119.342V137.636H125.44V131.538Z" fill="black"/>
<path d="M137.636 131.538H131.538V137.636H137.636V131.538Z" fill="black"/>
<path d="M149.831 131.538H143.733V137.636H149.831V131.538Z" fill="black"/>
<path d="M155.929 131.538H149.831V137.636H155.929V131.538Z" fill="black"/>
<path d="M162.027 131.538H155.929V137.636H162.027V131.538Z" fill="black"/>
<path d="M174.222 131.538H168.124V137.636H174.222V131.538Z" fill="black"/>
<path d="M27.8756 137.636H21.7778V143.733H27.8756V137.636Z" fill="black"/>
<path d="M64.4623 137.636H58.3645L58.3645 143.733H64.4623V137.636Z" fill="black"/>
<path d="M76.6578 137.636H70.5601V143.733H76.6578V137.636Z" fill="black"/>
<path d="M88.8534 137.636H82.7556V143.733H88.8534V137.636Z" fill="black"/>
<path d="M113.244 137.636H107.147V143.733H113.244L113.244 137.636Z" fill="black"/>
<path d="M125.44 137.636H119.342V143.733H125.44V137.636Z" fill="black"/>
<path d="M149.831 137.636H143.733V143.733H149.831V137.636Z" fill="black"/>
<path d="M162.027 137.636H155.929V143.733H162.027V137.636Z" fill="black"/>
<path d="M27.8756 143.733H21.7778V149.831H27.8756V143.733Z" fill="black"/>
<path d="M40.0712 143.733H33.9734V149.831H40.0712V143.733Z" fill="black"/>
<path d="M46.1689 143.733H40.0712V149.831H46.1689V143.733Z" fill="black"/>
<path d="M52.2667 143.733H46.1689V149.831H52.2667V143.733Z" fill="black"/>
<path d="M64.4623 143.733H58.3645V149.831H64.4623V143.733Z" fill="black"/>
<path d="M76.6578 143.733H70.5601V149.831H76.6578V143.733Z" fill="black"/>
<path d="M82.7556 143.733H76.6578V149.831H82.7556V143.733Z" fill="black"/>
<path d="M88.8534 143.733H82.7556V149.831H88.8534V143.733Z" fill="black"/>
<path d="M107.147 143.733H101.049V149.831H107.147V143.733Z" fill="black"/>
<path d="M113.244 143.733H107.147V149.831H113.244V143.733Z" fill="black"/>
<path d="M125.44 143.733H119.342V149.831H125.44V143.733Z" fill="black"/>
<path d="M131.538 143.733H125.44V149.831H131.538V143.733Z" fill="black"/>
<path d="M137.636 143.733H131.538V149.831H137.636V143.733Z" fill="black"/>
<path d="M143.733 143.733H137.636V149.831H143.733V143.733Z" fill="black"/>
<path d="M149.831 143.733H143.733V149.831H149.831V143.733Z" fill="black"/>
<path d="M174.222 143.733H168.124V149.831H174.222V143.733Z" fill="black"/>
<path d="M27.8756 149.831H21.7778V155.929H27.8756V149.831Z" fill="black"/>
<path d="M40.0712 149.831H33.9734V155.929H40.0712V149.831Z" fill="black"/>
<path d="M46.1689 149.831H40.0712V155.929H46.1689V149.831Z" fill="black"/>
<path d="M52.2667 149.831H46.1689V155.929H52.2667V149.831Z" fill="black"/>
<path d="M64.4623 149.831H58.3645V155.929H64.4623V149.831Z" fill="black"/>
<path d="M76.6578 149.831H70.5601V155.929H76.6578V149.831Z" fill="black"/>
<path d="M101.049 149.831H94.9512V155.929H101.049V149.831Z" fill="black"/>
<path d="M125.44 149.831H119.342V155.929H125.44V149.831Z" fill="black"/>
<path d="M131.538 149.831H125.44V155.929H131.538V149.831Z" fill="black"/>
<path d="M155.929 149.831H149.831V155.929H155.929V149.831Z" fill="black"/>
<path d="M27.8756 155.929H21.7778V162.027H27.8756V155.929Z" fill="black"/>
<path d="M40.0712 155.929H33.9734V162.027H40.0712V155.929Z" fill="black"/>
<path d="M46.1689 155.929H40.0712V162.027H46.1689V155.929Z" fill="black"/>
<path d="M52.2667 155.929H46.1689V162.027H52.2667V155.929Z" fill="black"/>
<path d="M64.4623 155.929H58.3645V162.027H64.4623V155.929Z" fill="black"/>
<path d="M94.9512 155.929H88.8534V162.027H94.9512V155.929Z" fill="black"/>
<path d="M101.049 155.929H94.9512V162.027H101.049V155.929Z" fill="black"/>
<path d="M113.244 155.929H107.147V162.027H113.244V155.929Z" fill="black"/>
<path d="M119.342 155.929H113.244V162.027H119.342V155.929Z" fill="black"/>
<path d="M125.44 155.929H119.342V162.027H125.44V155.929Z" fill="black"/>
<path d="M143.733 155.929H137.636V162.027H143.733V155.929Z" fill="black"/>
<path d="M149.831 155.929H143.733V162.027H149.831V155.929Z" fill="black"/>
<path d="M162.027 155.929H155.929V162.027H162.027V155.929Z" fill="black"/>
<path d="M168.124 155.929H162.027V162.027H168.124V155.929Z" fill="black"/>
<path d="M174.222 155.929H168.124V162.027H174.222V155.929Z" fill="black"/>
<path d="M27.8756 162.027H21.7778V168.124H27.8756V162.027Z" fill="black"/>
<path d="M64.4623 162.027H58.3645V168.124H64.4623V162.027Z" fill="black"/>
<path d="M82.7556 162.027H76.6578V168.124H82.7556V162.027Z" fill="black"/>
<path d="M88.8534 162.027H82.7556V168.124H88.8534V162.027Z" fill="black"/>
<path d="M94.9512 162.027H88.8534V168.124H94.9512V162.027Z" fill="black"/>
<path d="M107.147 162.027H101.049V168.124H107.147V162.027Z" fill="black"/>
<path d="M113.244 162.027H107.147V168.124H113.244V162.027Z" fill="black"/>
<path d="M131.538 162.027H125.44V168.124H131.538V162.027Z" fill="black"/>
<path d="M137.636 162.027H131.538V168.124H137.636V162.027Z" fill="black"/>
<path d="M143.733 162.027H137.636V168.124H143.733V162.027Z" fill="black"/>
<path d="M149.831 162.027H143.733V168.124H149.831V162.027Z" fill="black"/>
<path d="M162.027 162.027H155.929V168.124H162.027V162.027Z" fill="black"/>
<path d="M168.124 162.027H162.027V168.124H168.124V162.027Z" fill="black"/>
<path d="M174.222 162.027H168.124V168.124H174.222V162.027Z" fill="black"/>
<path d="M27.8756 168.124H21.7778V174.222H27.8756V168.124Z" fill="black"/>
<path d="M33.9734 168.124H27.8756V174.222H33.9734V168.124Z" fill="black"/>
<path d="M40.0712 168.124H33.9734V174.222H40.0712V168.124Z" fill="black"/>
<path d="M46.1689 168.124H40.0712V174.222H46.1689V168.124Z" fill="black"/>
<path d="M52.2667 168.124H46.1689V174.222H52.2667V168.124Z" fill="black"/>
<path d="M58.3645 168.124H52.2667V174.222H58.3645L58.3645 168.124Z" fill="black"/>
<path d="M64.4623 168.124H58.3645L58.3645 174.222H64.4623V168.124Z" fill="black"/>
<path d="M76.6578 168.124H70.5601V174.222H76.6578V168.124Z" fill="black"/>
<path d="M94.9512 168.124H88.8534V174.222H94.9512V168.124Z" fill="black"/>
<path d="M101.049 168.124H94.9512V174.222H101.049V168.124Z" fill="black"/>
<path d="M125.44 168.124H119.342V174.222H125.44V168.124Z" fill="black"/>
<path d="M155.929 168.124H149.831V174.222H155.929V168.124Z" fill="black"/>
<path d="M174.222 168.124H168.124V174.222H174.222V168.124Z" fill="black"/>
<mask id="mask0_604_3903" style="mask-type:alpha" maskUnits="userSpaceOnUse" x="21" y="21" width="154" height="154">
<path d="M27.8756 21.7778H21.7778V27.8756H27.8756V21.7778Z" fill="black"/>
<path d="M33.9734 21.7778H27.8756V27.8756H33.9734V21.7778Z" fill="black"/>
<path d="M40.0712 21.7778H33.9734V27.8756H40.0712V21.7778Z" fill="black"/>
<path d="M46.1689 21.7778H40.0712V27.8756H46.1689V21.7778Z" fill="black"/>
<path d="M52.2667 21.7778H46.1689V27.8756H52.2667V21.7778Z" fill="black"/>
<path d="M58.3645 21.7778H52.2667V27.8756H58.3645V21.7778Z" fill="black"/>
<path d="M64.4623 21.7778H58.3645V27.8756H64.4623V21.7778Z" fill="black"/>
<path d="M76.6578 21.7778H70.5601V27.8756H76.6578V21.7778Z" fill="black"/>
<path d="M82.7556 21.7778H76.6578V27.8756H82.7556V21.7778Z" fill="black"/>
<path d="M107.147 21.7778H101.049V27.8756H107.147V21.7778Z" fill="black"/>
<path d="M125.44 21.7778H119.342V27.8756H125.44V21.7778Z" fill="black"/>
<path d="M137.636 21.7778H131.538V27.8756H137.636V21.7778Z" fill="black"/>
<path d="M143.733 21.7778H137.636V27.8756H143.733V21.7778Z" fill="black"/>
<path d="M149.831 21.7778H143.733V27.8756H149.831V21.7778Z" fill="black"/>
<path d="M155.929 21.7778H149.831V27.8756H155.929V21.7778Z" fill="black"/>
<path d="M162.027 21.7778H155.929V27.8756H162.027V21.7778Z" fill="black"/>
<path d="M168.124 21.7778H162.027V27.8756H168.124V21.7778Z" fill="black"/>
<path d="M174.222 21.7778H168.124V27.8756H174.222V21.7778Z" fill="black"/>
<path d="M27.8756 27.8756H21.7778V33.9734H27.8756V27.8756Z" fill="black"/>
<path d="M64.4623 27.8756H58.3645L58.3645 33.9734H64.4623V27.8756Z" fill="black"/>
<path d="M101.049 27.8756H94.9512V33.9734H101.049V27.8756Z" fill="black"/>
<path d="M107.147 27.8756H101.049V33.9734H107.147V27.8756Z" fill="black"/>
<path d="M125.44 27.8756H119.342V33.9734H125.44V27.8756Z" fill="black"/>
<path d="M137.636 27.8756H131.538V33.9734H137.636V27.8756Z" fill="black"/>
<path d="M174.222 27.8756H168.124V33.9734H174.222V27.8756Z" fill="black"/>
<path d="M27.8756 33.9734H21.7778V40.0712H27.8756V33.9734Z" fill="black"/>
<path d="M40.0712 33.9734H33.9734V40.0712H40.0712V33.9734Z" fill="black"/>
<path d="M46.1689 33.9734H40.0712V40.0712H46.1689V33.9734Z" fill="black"/>
<path d="M52.2667 33.9734H46.1689V40.0712H52.2667V33.9734Z" fill="black"/>
<path d="M64.4623 33.9734H58.3645V40.0712H64.4623V33.9734Z" fill="black"/>
<path d="M82.7556 33.9734H76.6578V40.0712H82.7556V33.9734Z" fill="black"/>
<path d="M88.8534 33.9734H82.7556V40.0712H88.8534V33.9734Z" fill="black"/>
<path d="M94.9512 33.9734H88.8534V40.0712H94.9512V33.9734Z" fill="black"/>
<path d="M101.049 33.9734H94.9512V40.0712H101.049V33.9734Z" fill="black"/>
<path d="M107.147 33.9734H101.049V40.0712H107.147V33.9734Z" fill="black"/>
<path d="M125.44 33.9734H119.342V40.0712H125.44V33.9734Z" fill="black"/>
<path d="M137.636 33.9734H131.538V40.0712H137.636V33.9734Z" fill="black"/>
<path d="M149.831 33.9734H143.733V40.0712H149.831V33.9734Z" fill="black"/>
<path d="M155.929 33.9734H149.831V40.0712H155.929V33.9734Z" fill="black"/>
<path d="M162.027 33.9734H155.929V40.0712H162.027V33.9734Z" fill="black"/>
<path d="M174.222 33.9734H168.124V40.0712H174.222V33.9734Z" fill="black"/>
<path d="M27.8756 40.0712H21.7778V46.1689H27.8756V40.0712Z" fill="black"/>
<path d="M40.0712 40.0712H33.9734V46.1689H40.0712V40.0712Z" fill="black"/>
<path d="M46.1689 40.0712H40.0712V46.1689H46.1689V40.0712Z" fill="black"/>
<path d="M52.2667 40.0712H46.1689V46.1689H52.2667V40.0712Z" fill="black"/>
<path d="M64.4623 40.0712H58.3645V46.1689H64.4623V40.0712Z" fill="black"/>
<path d="M82.7556 40.0712H76.6578V46.1689H82.7556V40.0712Z" fill="black"/>
<path d="M88.8534 40.0712H82.7556V46.1689H88.8534V40.0712Z" fill="black"/>
<path d="M107.147 40.0712H101.049V46.1689H107.147V40.0712Z" fill="black"/>
<path d="M137.636 40.0712H131.538V46.1689H137.636V40.0712Z" fill="black"/>
<path d="M149.831 40.0712H143.733V46.1689H149.831V40.0712Z" fill="black"/>
<path d="M155.929 40.0712H149.831V46.1689H155.929V40.0712Z" fill="black"/>
<path d="M162.027 40.0712H155.929V46.1689H162.027V40.0712Z" fill="black"/>
<path d="M174.222 40.0712H168.124V46.1689H174.222V40.0712Z" fill="black"/>
<path d="M27.8756 46.1689H21.7778V52.2667H27.8756V46.1689Z" fill="black"/>
<path d="M40.0712 46.1689H33.9734V52.2667H40.0712V46.1689Z" fill="black"/>
<path d="M46.1689 46.1689H40.0712V52.2667H46.1689V46.1689Z" fill="black"/>
<path d="M52.2667 46.1689H46.1689V52.2667H52.2667V46.1689Z" fill="black"/>
<path d="M64.4623 46.1689H58.3645V52.2667H64.4623V46.1689Z" fill="black"/>
<path d="M76.6578 46.1689H70.5601V52.2667H76.6578V46.1689Z" fill="black"/>
<path d="M88.8534 46.1689H82.7556V52.2667H88.8534V46.1689Z" fill="black"/>
<path d="M94.9512 46.1689H88.8534V52.2667H94.9512V46.1689Z" fill="black"/>
<path d="M101.049 46.1689H94.9512V52.2667H101.049V46.1689Z" fill="black"/>
<path d="M113.244 46.1689H107.147V52.2667H113.244V46.1689Z" fill="black"/>
<path d="M137.636 46.1689H131.538V52.2667H137.636V46.1689Z" fill="black"/>
<path d="M149.831 46.1689H143.733V52.2667H149.831V46.1689Z" fill="black"/>
<path d="M155.929 46.1689H149.831V52.2667H155.929V46.1689Z" fill="black"/>
<path d="M162.027 46.1689H155.929V52.2667H162.027V46.1689Z" fill="black"/>
<path d="M174.222 46.1689H168.124V52.2667H174.222V46.1689Z" fill="black"/>
<path d="M27.8756 52.2667H21.7778V58.3645H27.8756V52.2667Z" fill="black"/>
<path d="M64.4623 52.2667H58.3645V58.3645H64.4623V52.2667Z" fill="black"/>
<path d="M113.244 52.2667H107.147V58.3645H113.244V52.2667Z" fill="black"/>
<path d="M137.636 52.2667H131.538V58.3645H137.636V52.2667Z" fill="black"/>
<path d="M174.222 52.2667H168.124V58.3645H174.222V52.2667Z" fill="black"/>
<path d="M27.8756 58.3645H21.7778V64.4623H27.8756V58.3645Z" fill="black"/>
<path d="M33.9734 58.3645L27.8756 58.3645V64.4623H33.9734V58.3645Z" fill="black"/>
<path d="M40.0712 58.3645H33.9734V64.4623H40.0712V58.3645Z" fill="black"/>
<path d="M46.1689 58.3645H40.0712V64.4623H46.1689V58.3645Z" fill="black"/>
<path d="M52.2667 58.3645H46.1689V64.4623H52.2667V58.3645Z" fill="black"/>
<path d="M58.3645 58.3645L52.2667 58.3645V64.4623H58.3645L58.3645 58.3645Z" fill="black"/>
<path d="M64.4623 58.3645H58.3645L58.3645 64.4623H64.4623V58.3645Z" fill="black"/>
<path d="M76.6578 58.3645H70.5601V64.4623H76.6578V58.3645Z" fill="black"/>
<path d="M88.8534 58.3645H82.7556V64.4623H88.8534V58.3645Z" fill="black"/>
<path d="M101.049 58.3645H94.9512V64.4623H101.049V58.3645Z" fill="black"/>
<path d="M113.244 58.3645H107.147V64.4623H113.244V58.3645Z" fill="black"/>
<path d="M125.44 58.3645H119.342V64.4623H125.44V58.3645Z" fill="black"/>
<path d="M137.636 58.3645H131.538V64.4623H137.636V58.3645Z" fill="black"/>
<path d="M143.733 58.3645L137.636 58.3645V64.4623H143.733V58.3645Z" fill="black"/>
<path d="M149.831 58.3645H143.733V64.4623H149.831V58.3645Z" fill="black"/>
<path d="M155.929 58.3645H149.831V64.4623H155.929V58.3645Z" fill="black"/>
<path d="M162.027 58.3645H155.929V64.4623H162.027V58.3645Z" fill="black"/>
<path d="M168.124 58.3645L162.027 58.3645V64.4623H168.124V58.3645Z" fill="black"/>
<path d="M174.222 58.3645H168.124V64.4623H174.222V58.3645Z" fill="black"/>
<path d="M76.6578 64.4623H70.5601V70.5601H76.6578V64.4623Z" fill="black"/>
<path d="M88.8534 64.4623H82.7556V70.5601H88.8534V64.4623Z" fill="black"/>
<path d="M101.049 64.4623H94.9512V70.5601H101.049V64.4623Z" fill="black"/>
<path d="M107.147 64.4623H101.049V70.5601H107.147V64.4623Z" fill="black"/>
<path d="M119.342 64.4623H113.244L113.244 70.5601H119.342V64.4623Z" fill="black"/>
<path d="M125.44 64.4623H119.342V70.5601H125.44V64.4623Z" fill="black"/>
<path d="M27.8756 70.5601H21.7778V76.6578H27.8756V70.5601Z" fill="black"/>
<path d="M46.1689 70.5601H40.0712V76.6578H46.1689V70.5601Z" fill="black"/>
<path d="M52.2667 70.5601H46.1689V76.6578H52.2667V70.5601Z" fill="black"/>
<path d="M58.3645 70.5601H52.2667V76.6578H58.3645V70.5601Z" fill="black"/>
<path d="M64.4623 70.5601H58.3645V76.6578H64.4623V70.5601Z" fill="black"/>
<path d="M70.5601 70.5601H64.4623V76.6578H70.5601V70.5601Z" fill="black"/>
<path d="M76.6578 70.5601H70.5601V76.6578H76.6578V70.5601Z" fill="black"/>
<path d="M82.7556 70.5601H76.6578V76.6578H82.7556V70.5601Z" fill="black"/>
<path d="M107.147 70.5601H101.049V76.6578H107.147V70.5601Z" fill="black"/>
<path d="M125.44 70.5601H119.342V76.6578H125.44V70.5601Z" fill="black"/>
<path d="M131.538 70.5601H125.44V76.6578H131.538V70.5601Z" fill="black"/>
<path d="M137.636 70.5601H131.538V76.6578H137.636V70.5601Z" fill="black"/>
<path d="M149.831 70.5601H143.733V76.6578H149.831V70.5601Z" fill="black"/>
<path d="M174.222 70.5601H168.124V76.6578H174.222V70.5601Z" fill="black"/>
<path d="M33.9734 76.6578H27.8756V82.7556H33.9734V76.6578Z" fill="black"/>
<path d="M46.1689 76.6578H40.0712V82.7556H46.1689V76.6578Z" fill="black"/>
<path d="M52.2667 76.6578H46.1689V82.7556H52.2667V76.6578Z" fill="black"/>
<path d="M70.5601 76.6578H64.4623V82.7556H70.5601V76.6578Z" fill="black"/>
<path d="M76.6578 76.6578H70.5601V82.7556H76.6578V76.6578Z" fill="black"/>
<path d="M101.049 76.6578H94.9512V82.7556H101.049V76.6578Z" fill="black"/>
<path d="M119.342 76.6578H113.244V82.7556H119.342V76.6578Z" fill="black"/>
<path d="M131.538 76.6578H125.44V82.7556H131.538V76.6578Z" fill="black"/>
<path d="M137.636 76.6578H131.538V82.7556H137.636V76.6578Z" fill="black"/>
<path d="M149.831 76.6578H143.733V82.7556H149.831V76.6578Z" fill="black"/>
<path d="M155.929 76.6578H149.831V82.7556H155.929V76.6578Z" fill="black"/>
<path d="M162.027 76.6578H155.929V82.7556H162.027V76.6578Z" fill="black"/>
<path d="M168.124 76.6578H162.027V82.7556H168.124V76.6578Z" fill="black"/>
<path d="M174.222 76.6578H168.124V82.7556H174.222V76.6578Z" fill="black"/>
<path d="M27.8756 82.7556H21.7778V88.8534H27.8756V82.7556Z" fill="black"/>
<path d="M33.9734 82.7556H27.8756V88.8534H33.9734V82.7556Z" fill="black"/>
<path d="M46.1689 82.7556H40.0712V88.8534H46.1689V82.7556Z" fill="black"/>
<path d="M52.2667 82.7556H46.1689V88.8534H52.2667V82.7556Z" fill="black"/>
<path d="M58.3645 82.7556H52.2667V88.8534H58.3645V82.7556Z" fill="black"/>
<path d="M64.4623 82.7556H58.3645V88.8534H64.4623V82.7556Z" fill="black"/>
<path d="M70.5601 82.7556H64.4623V88.8534H70.5601V82.7556Z" fill="black"/>
<path d="M82.7556 82.7556H76.6578V88.8534H82.7556V82.7556Z" fill="black"/>
<path d="M94.9512 82.7556H88.8534V88.8534H94.9512V82.7556Z" fill="black"/>
<path d="M101.049 82.7556H94.9512V88.8534H101.049V82.7556Z" fill="black"/>
<path d="M113.244 82.7556H107.147V88.8534H113.244L113.244 82.7556Z" fill="black"/>
<path d="M125.44 82.7556H119.342V88.8534H125.44V82.7556Z" fill="black"/>
<path d="M131.538 82.7556H125.44V88.8534H131.538V82.7556Z" fill="black"/>
<path d="M137.636 82.7556H131.538V88.8534H137.636V82.7556Z" fill="black"/>
<path d="M143.733 82.7556H137.636V88.8534H143.733V82.7556Z" fill="black"/>
<path d="M149.831 82.7556H143.733V88.8534H149.831V82.7556Z" fill="black"/>
<path d="M155.929 82.7556H149.831V88.8534H155.929V82.7556Z" fill="black"/>
<path d="M162.027 82.7556H155.929V88.8534H162.027V82.7556Z" fill="black"/>
<path d="M168.124 82.7556H162.027V88.8534H168.124V82.7556Z" fill="black"/>
<path d="M27.8756 88.8534H21.7778V94.9512H27.8756V88.8534Z" fill="black"/>
<path d="M52.2667 88.8534H46.1689V94.9512H52.2667V88.8534Z" fill="black"/>
<path d="M58.3645 88.8534H52.2667V94.9512H58.3645V88.8534Z" fill="black"/>
<path d="M70.5601 88.8534H64.4623V94.9512H70.5601V88.8534Z" fill="black"/>
<path d="M82.7556 88.8534H76.6578V94.9512H82.7556V88.8534Z" fill="black"/>
<path d="M88.8534 88.8534H82.7556V94.9512H88.8534V88.8534Z" fill="black"/>
<path d="M113.244 88.8534H107.147V94.9512H113.244V88.8534Z" fill="black"/>
<path d="M119.342 88.8534H113.244V94.9512H119.342V88.8534Z" fill="black"/>
<path d="M149.831 88.8534H143.733V94.9512H149.831V88.8534Z" fill="black"/>
<path d="M162.027 88.8534H155.929V94.9512H162.027V88.8534Z" fill="black"/>
<path d="M168.124 88.8534H162.027V94.9512H168.124V88.8534Z" fill="black"/>
<path d="M27.8756 94.9512H21.7778V101.049H27.8756V94.9512Z" fill="black"/>
<path d="M46.1689 94.9512H40.0712V101.049H46.1689V94.9512Z" fill="black"/>
<path d="M52.2667 94.9512H46.1689V101.049H52.2667V94.9512Z" fill="black"/>
<path d="M58.3645 94.9512H52.2667V101.049H58.3645V94.9512Z" fill="black"/>
<path d="M64.4623 94.9512H58.3645V101.049H64.4623V94.9512Z" fill="black"/>
<path d="M70.5601 94.9512H64.4623V101.049H70.5601V94.9512Z" fill="black"/>
<path d="M76.6578 94.9512H70.5601V101.049H76.6578V94.9512Z" fill="black"/>
<path d="M88.8534 94.9512H82.7556V101.049H88.8534V94.9512Z" fill="black"/>
<path d="M94.9512 94.9512H88.8534V101.049H94.9512V94.9512Z" fill="black"/>
<path d="M107.147 94.9512H101.049V101.049H107.147V94.9512Z" fill="black"/>
<path d="M113.244 94.9512H107.147V101.049H113.244V94.9512Z" fill="black"/>
<path d="M125.44 94.9512H119.342V101.049H125.44V94.9512Z" fill="black"/>
<path d="M143.733 94.9512H137.636V101.049H143.733V94.9512Z" fill="black"/>
<path d="M155.929 94.9512H149.831V101.049H155.929V94.9512Z" fill="black"/>
<path d="M162.027 94.9512H155.929V101.049H162.027V94.9512Z" fill="black"/>
<path d="M174.222 94.9512H168.124V101.049H174.222V94.9512Z" fill="black"/>
<path d="M27.8756 101.049H21.7778V107.147H27.8756V101.049Z" fill="black"/>
<path d="M33.9734 101.049H27.8756V107.147H33.9734V101.049Z" fill="black"/>
<path d="M70.5601 101.049H64.4623V107.147H70.5601V101.049Z" fill="black"/>
<path d="M76.6578 101.049H70.5601V107.147H76.6578V101.049Z" fill="black"/>
<path d="M82.7556 101.049H76.6578V107.147H82.7556V101.049Z" fill="black"/>
<path d="M101.049 101.049H94.9512V107.147H101.049V101.049Z" fill="black"/>
<path d="M113.244 101.049H107.147V107.147H113.244V101.049Z" fill="black"/>
<path d="M119.342 101.049H113.244V107.147H119.342V101.049Z" fill="black"/>
<path d="M125.44 101.049H119.342V107.147H125.44V101.049Z" fill="black"/>
<path d="M131.538 101.049H125.44V107.147H131.538V101.049Z" fill="black"/>
<path d="M149.831 101.049H143.733V107.147H149.831V101.049Z" fill="black"/>
<path d="M162.027 101.049H155.929V107.147H162.027V101.049Z" fill="black"/>
<path d="M168.124 101.049H162.027V107.147H168.124V101.049Z" fill="black"/>
<path d="M174.222 101.049H168.124V107.147H174.222V101.049Z" fill="black"/>
<path d="M27.8756 107.147H21.7778V113.244H27.8756V107.147Z" fill="black"/>
<path d="M33.9734 107.147H27.8756V113.244H33.9734V107.147Z" fill="black"/>
<path d="M40.0712 107.147H33.9734V113.244H40.0712V107.147Z" fill="black"/>
<path d="M64.4623 107.147H58.3645V113.244H64.4623V107.147Z" fill="black"/>
<path d="M82.7556 107.147H76.6578V113.244H82.7556V107.147Z" fill="black"/>
<path d="M94.9512 107.147H88.8534V113.244H94.9512V107.147Z" fill="black"/>
<path d="M101.049 107.147H94.9512V113.244H101.049V107.147Z" fill="black"/>
<path d="M113.244 107.147H107.147V113.244H113.244V107.147Z" fill="black"/>
<path d="M131.538 107.147H125.44V113.244H131.538V107.147Z" fill="black"/>
<path d="M143.733 107.147H137.636V113.244H143.733V107.147Z" fill="black"/>
<path d="M149.831 107.147H143.733V113.244H149.831V107.147Z" fill="black"/>
<path d="M162.027 107.147H155.929V113.244H162.027V107.147Z" fill="black"/>
<path d="M33.9734 113.244H27.8756V119.342H33.9734V113.244Z" fill="black"/>
<path d="M70.5601 113.244L64.4623 113.244V119.342H70.5601V113.244Z" fill="black"/>
<path d="M101.049 113.244H94.9512V119.342H101.049V113.244Z" fill="black"/>
<path d="M113.244 113.244H107.147V119.342H113.244V113.244Z" fill="black"/>
<path d="M119.342 113.244L113.244 113.244V119.342H119.342V113.244Z" fill="black"/>
<path d="M137.636 113.244H131.538V119.342H137.636V113.244Z" fill="black"/>
<path d="M149.831 113.244H143.733V119.342H149.831V113.244Z" fill="black"/>
<path d="M168.124 113.244L162.027 113.244V119.342H168.124V113.244Z" fill="black"/>
<path d="M27.8756 119.342H21.7778V125.44H27.8756V119.342Z" fill="black"/>
<path d="M58.3645 119.342H52.2667V125.44H58.3645V119.342Z" fill="black"/>
<path d="M64.4623 119.342H58.3645V125.44H64.4623V119.342Z" fill="black"/>
<path d="M70.5601 119.342H64.4623V125.44H70.5601V119.342Z" fill="black"/>
<path d="M82.7556 119.342H76.6578V125.44H82.7556V119.342Z" fill="black"/>
<path d="M88.8534 119.342H82.7556V125.44H88.8534V119.342Z" fill="black"/>
<path d="M101.049 119.342H94.9512V125.44H101.049V119.342Z" fill="black"/>
<path d="M119.342 119.342H113.244L113.244 125.44H119.342V119.342Z" fill="black"/>
<path d="M125.44 119.342H119.342V125.44H125.44V119.342Z" fill="black"/>
<path d="M131.538 119.342H125.44V125.44H131.538V119.342Z" fill="black"/>
<path d="M137.636 119.342H131.538V125.44H137.636V119.342Z" fill="black"/>
<path d="M143.733 119.342H137.636V125.44H143.733V119.342Z" fill="black"/>
<path d="M149.831 119.342H143.733V125.44H149.831V119.342Z" fill="black"/>
<path d="M155.929 119.342H149.831V125.44H155.929V119.342Z" fill="black"/>
<path d="M168.124 119.342H162.027V125.44H168.124V119.342Z" fill="black"/>
<path d="M76.6578 125.44H70.5601V131.538H76.6578V125.44Z" fill="black"/>
<path d="M88.8534 125.44H82.7556V131.538H88.8534V125.44Z" fill="black"/>
<path d="M101.049 125.44H94.9512V131.538H101.049V125.44Z" fill="black"/>
<path d="M119.342 125.44H113.244V131.538H119.342V125.44Z" fill="black"/>
<path d="M125.44 125.44H119.342V131.538H125.44V125.44Z" fill="black"/>
<path d="M149.831 125.44H143.733V131.538H149.831V125.44Z" fill="black"/>
<path d="M155.929 125.44H149.831V131.538H155.929V125.44Z" fill="black"/>
<path d="M162.027 125.44H155.929V131.538H162.027V125.44Z" fill="black"/>
<path d="M27.8756 131.538H21.7778V137.636H27.8756V131.538Z" fill="black"/>
<path d="M33.9734 131.538H27.8756V137.636H33.9734V131.538Z" fill="black"/>
<path d="M40.0712 131.538H33.9734V137.636H40.0712V131.538Z" fill="black"/>
<path d="M46.1689 131.538H40.0712V137.636H46.1689V131.538Z" fill="black"/>
<path d="M52.2667 131.538H46.1689V137.636H52.2667V131.538Z" fill="black"/>
<path d="M58.3645 131.538H52.2667V137.636H58.3645V131.538Z" fill="black"/>
<path d="M64.4623 131.538H58.3645V137.636H64.4623V131.538Z" fill="black"/>
<path d="M76.6578 131.538H70.5601V137.636H76.6578V131.538Z" fill="black"/>
<path d="M101.049 131.538H94.9512V137.636H101.049V131.538Z" fill="black"/>
<path d="M119.342 131.538H113.244V137.636H119.342V131.538Z" fill="black"/>
<path d="M125.44 131.538H119.342V137.636H125.44V131.538Z" fill="black"/>
<path d="M137.636 131.538H131.538V137.636H137.636V131.538Z" fill="black"/>
<path d="M149.831 131.538H143.733V137.636H149.831V131.538Z" fill="black"/>
<path d="M155.929 131.538H149.831V137.636H155.929V131.538Z" fill="black"/>
<path d="M162.027 131.538H155.929V137.636H162.027V131.538Z" fill="black"/>
<path d="M174.222 131.538H168.124V137.636H174.222V131.538Z" fill="black"/>
<path d="M27.8756 137.636H21.7778V143.733H27.8756V137.636Z" fill="black"/>
<path d="M64.4623 137.636H58.3645L58.3645 143.733H64.4623V137.636Z" fill="black"/>
<path d="M76.6578 137.636H70.5601V143.733H76.6578V137.636Z" fill="black"/>
<path d="M88.8534 137.636H82.7556V143.733H88.8534V137.636Z" fill="black"/>
<path d="M113.244 137.636H107.147V143.733H113.244L113.244 137.636Z" fill="black"/>
<path d="M125.44 137.636H119.342V143.733H125.44V137.636Z" fill="black"/>
<path d="M149.831 137.636H143.733V143.733H149.831V137.636Z" fill="black"/>
<path d="M162.027 137.636H155.929V143.733H162.027V137.636Z" fill="black"/>
<path d="M27.8756 143.733H21.7778V149.831H27.8756V143.733Z" fill="black"/>
<path d="M40.0712 143.733H33.9734V149.831H40.0712V143.733Z" fill="black"/>
<path d="M46.1689 143.733H40.0712V149.831H46.1689V143.733Z" fill="black"/>
<path d="M52.2667 143.733H46.1689V149.831H52.2667V143.733Z" fill="black"/>
<path d="M64.4623 143.733H58.3645V149.831H64.4623V143.733Z" fill="black"/>
<path d="M76.6578 143.733H70.5601V149.831H76.6578V143.733Z" fill="black"/>
<path d="M82.7556 143.733H76.6578V149.831H82.7556V143.733Z" fill="black"/>
<path d="M88.8534 143.733H82.7556V149.831H88.8534V143.733Z" fill="black"/>
<path d="M107.147 143.733H101.049V149.831H107.147V143.733Z" fill="black"/>
<path d="M113.244 143.733H107.147V149.831H113.244V143.733Z" fill="black"/>
<path d="M125.44 143.733H119.342V149.831H125.44V143.733Z" fill="black"/>
<path d="M131.538 143.733H125.44V149.831H131.538V143.733Z" fill="black"/>
<path d="M137.636 143.733H131.538V149.831H137.636V143.733Z" fill="black"/>
<path d="M143.733 143.733H137.636V149.831H143.733V143.733Z" fill="black"/>
<path d="M149.831 143.733H143.733V149.831H149.831V143.733Z" fill="black"/>
<path d="M174.222 143.733H168.124V149.831H174.222V143.733Z" fill="black"/>
<path d="M27.8756 149.831H21.7778V155.929H27.8756V149.831Z" fill="black"/>
<path d="M40.0712 149.831H33.9734V155.929H40.0712V149.831Z" fill="black"/>
<path d="M46.1689 149.831H40.0712V155.929H46.1689V149.831Z" fill="black"/>
<path d="M52.2667 149.831H46.1689V155.929H52.2667V149.831Z" fill="black"/>
<path d="M64.4623 149.831H58.3645V155.929H64.4623V149.831Z" fill="black"/>
<path d="M76.6578 149.831H70.5601V155.929H76.6578V149.831Z" fill="black"/>
<path d="M101.049 149.831H94.9512V155.929H101.049V149.831Z" fill="black"/>
<path d="M125.44 149.831H119.342V155.929H125.44V149.831Z" fill="black"/>
<path d="M131.538 149.831H125.44V155.929H131.538V149.831Z" fill="black"/>
<path d="M155.929 149.831H149.831V155.929H155.929V149.831Z" fill="black"/>
<path d="M27.8756 155.929H21.7778V162.027H27.8756V155.929Z" fill="black"/>
<path d="M40.0712 155.929H33.9734V162.027H40.0712V155.929Z" fill="black"/>
<path d="M46.1689 155.929H40.0712V162.027H46.1689V155.929Z" fill="black"/>
<path d="M52.2667 155.929H46.1689V162.027H52.2667V155.929Z" fill="black"/>
<path d="M64.4623 155.929H58.3645V162.027H64.4623V155.929Z" fill="black"/>
<path d="M94.9512 155.929H88.8534V162.027H94.9512V155.929Z" fill="black"/>
<path d="M101.049 155.929H94.9512V162.027H101.049V155.929Z" fill="black"/>
<path d="M113.244 155.929H107.147V162.027H113.244V155.929Z" fill="black"/>
<path d="M119.342 155.929H113.244V162.027H119.342V155.929Z" fill="black"/>
<path d="M125.44 155.929H119.342V162.027H125.44V155.929Z" fill="black"/>
<path d="M143.733 155.929H137.636V162.027H143.733V155.929Z" fill="black"/>
<path d="M149.831 155.929H143.733V162.027H149.831V155.929Z" fill="black"/>
<path d="M162.027 155.929H155.929V162.027H162.027V155.929Z" fill="black"/>
<path d="M168.124 155.929H162.027V162.027H168.124V155.929Z" fill="black"/>
<path d="M174.222 155.929H168.124V162.027H174.222V155.929Z" fill="black"/>
<path d="M27.8756 162.027H21.7778V168.124H27.8756V162.027Z" fill="black"/>
<path d="M64.4623 162.027H58.3645V168.124H64.4623V162.027Z" fill="black"/>
<path d="M82.7556 162.027H76.6578V168.124H82.7556V162.027Z" fill="black"/>
<path d="M88.8534 162.027H82.7556V168.124H88.8534V162.027Z" fill="black"/>
<path d="M94.9512 162.027H88.8534V168.124H94.9512V162.027Z" fill="black"/>
<path d="M107.147 162.027H101.049V168.124H107.147V162.027Z" fill="black"/>
<path d="M113.244 162.027H107.147V168.124H113.244V162.027Z" fill="black"/>
<path d="M131.538 162.027H125.44V168.124H131.538V162.027Z" fill="black"/>
<path d="M137.636 162.027H131.538V168.124H137.636V162.027Z" fill="black"/>
<path d="M143.733 162.027H137.636V168.124H143.733V162.027Z" fill="black"/>
<path d="M149.831 162.027H143.733V168.124H149.831V162.027Z" fill="black"/>
<path d="M162.027 162.027H155.929V168.124H162.027V162.027Z" fill="black"/>
<path d="M168.124 162.027H162.027V168.124H168.124V162.027Z" fill="black"/>
<path d="M174.222 162.027H168.124V168.124H174.222V162.027Z" fill="black"/>
<path d="M27.8756 168.124H21.7778V174.222H27.8756V168.124Z" fill="black"/>
<path d="M33.9734 168.124H27.8756V174.222H33.9734V168.124Z" fill="black"/>
<path d="M40.0712 168.124H33.9734V174.222H40.0712V168.124Z" fill="black"/>
<path d="M46.1689 168.124H40.0712V174.222H46.1689V168.124Z" fill="black"/>
<path d="M52.2667 168.124H46.1689V174.222H52.2667V168.124Z" fill="black"/>
<path d="M58.3645 168.124H52.2667V174.222H58.3645L58.3645 168.124Z" fill="black"/>
<path d="M64.4623 168.124H58.3645L58.3645 174.222H64.4623V168.124Z" fill="black"/>
<path d="M76.6578 168.124H70.5601V174.222H76.6578V168.124Z" fill="black"/>
<path d="M94.9512 168.124H88.8534V174.222H94.9512V168.124Z" fill="black"/>
<path d="M101.049 168.124H94.9512V174.222H101.049V168.124Z" fill="black"/>
<path d="M125.44 168.124H119.342V174.222H125.44V168.124Z" fill="black"/>
<path d="M155.929 168.124H149.831V174.222H155.929V168.124Z" fill="black"/>
<path d="M174.222 168.124H168.124V174.222H174.222V168.124Z" fill="black"/>
</mask>
<g mask="url(#mask0_604_3903)">
</g>
<g filter="url(#filter0_d_604_3903)">
<rect x="17.6943" y="18.375" width="160.611" height="7.48611" rx="3.74306" fill="#2C6975"/>
</g>
<defs>
<filter id="filter0_d_604_3903" x="6.80545" y="7.48611" width="182.389" height="29.2641" filterUnits="userSpaceOnUse" color-interpolation-filters="sRGB">
<feFlood flood-opacity="0" result="BackgroundImageFix"/>
<feColorMatrix in="SourceAlpha" type="matrix" values="0 0 0 0 0 0 0 0 0 0 0 0 0 0 0 0 0 0 127 0" result="hardAlpha"/>
<feOffset/>
<feGaussianBlur stdDeviation="5.44444"/>
<feColorMatrix type="matrix" values="0 0 0 0 0.0666667 0 0 0 0 0.270588 0 0 0 0 1 0 0 0 0.5 0"/>
<feBlend mode="normal" in2="BackgroundImageFix" result="effect1_dropShadow_604_3903"/>
<feBlend mode="normal" in="SourceGraphic" in2="effect1_dropShadow_604_3903" result="shape"/>
</filter>
</defs>
</svg>
