<svg width="183" height="219" viewBox="0 0 183 219" fill="none" xmlns="http://www.w3.org/2000/svg">
<g clip-path="url(#clip0_981_7572)">
<path d="M39.4695 153.581C42.6563 155.873 48.3495 152.576 51.8651 150.54C52.4824 150.182 53.0327 149.863 53.4903 149.621C66.9484 142.486 71.9936 137.474 73.2312 137.563C74.5462 137.658 71.5602 143.514 69.8002 158.706C69.7438 159.193 69.6495 159.79 69.5433 160.459C68.9403 164.269 67.9637 170.439 71.4963 172.24C72.9275 172.97 73.9412 173.364 75.7949 172.896C78.8615 172.121 81.1574 169.692 82.446 166.447C87.219 154.428 85.8949 140.777 80.9715 131.979C82.4823 130.432 84.0989 127.971 85.6006 126.338C89.9145 121.648 94.2302 116.94 98.5561 112.247C98.3563 118.795 99.1043 124.608 99.6954 130.974C100.377 138.319 101.247 145.733 103.334 151.532C104.754 155.478 107.012 161.325 110.022 160.725C112.877 160.156 115.911 156.075 117.037 150.137C118.431 142.791 117.901 132.482 116.691 126.226C115.156 118.291 109.941 111.245 103.401 107.842C105.785 105.176 110.194 98.8829 112.497 96.1198C116.887 90.8523 119.856 87.7876 123.593 83.8896C123.249 88.1056 122.932 99.5279 124.464 107.936C124.544 108.375 124.615 108.921 124.695 109.532C125.151 113.017 125.888 118.66 130.117 119.073C131.83 119.24 133.008 119.252 134.823 118.249C137.825 116.588 139.544 113.749 139.971 110.531C141.669 97.7251 135.432 85.5691 126.814 80.0021C132.19 74.8655 136.469 70.2845 143.27 60.0583C143.02 65.1609 144.14 70.3115 145.044 74.8449C145.42 76.728 145.795 78.6113 146.078 80.5843C147.262 88.8505 148.668 97.1844 151.408 103.619C153.273 107.998 156.215 114.475 159.692 113.616C162.991 112.801 166.312 108.005 167.311 101.22C168.608 92.4098 167.515 81.7282 165.641 74.1963C164.064 67.8537 159.536 61.0627 154.605 57.6663C154.196 57.3845 153.79 57.0953 153.384 56.8063C151.846 55.7093 150.278 54.3573 148.316 53.9081C149.896 51.9694 158.918 39.5467 159.546 37.5585C159.874 36.521 159.633 35.7736 158.303 35.2323C157.59 34.9421 157.385 35.1926 153.475 39.7697C151.141 42.681 148.257 46.2624 145.982 49.07C144.974 47.4614 143.339 46.3704 141.893 45.2437C141.501 44.9379 141.108 44.6318 140.722 44.3206C135.977 40.4955 128.313 38.09 121.494 38.2817C117.381 38.397 112.49 39.152 107.969 40.1519C107.318 40.2959 106.654 40.4385 105.981 40.583C102.154 41.4051 98.0404 42.2885 94.3816 43.8426C87.9493 46.5756 84.092 50.9723 84.159 54.2969C84.2297 57.8014 91.399 58.8639 96.213 59.4653C103.287 60.3494 111.883 59.475 120.355 58.4086C122.376 58.1541 124.334 58.0111 126.292 57.8678C130.292 57.5751 134.304 57.0048 138.37 56.3352C139.091 56.2163 139.761 56.0757 140.381 55.9156C131.128 69.604 129.251 71.9064 124.397 76.5541C124.357 76.1845 123.265 75.6467 122.906 75.3302C115.224 68.5615 101.628 65.7342 89.4146 70.6118C86.3493 71.8363 83.9869 74.1894 83.1138 77.4584C82.5859 79.4343 82.8987 80.5482 83.5001 82.1295C84.9845 86.033 90.7386 85.2948 94.2916 84.8387C94.9153 84.7585 95.4715 84.6871 95.9246 84.6514C105.624 83.881 118.444 79.9662 120.986 78.9413C121.209 78.8516 122.033 78.2461 122.856 78.4318C121.93 79.5602 118.971 83.2604 114.002 89.2228C112.843 90.6126 102.511 101.816 102.248 101.575C96.7959 96.5776 88.1129 94.0734 79.9394 95.1117C73.1601 95.9727 63.1739 98.5786 56.1932 102.208C50.6712 105.079 47.578 109.117 47.9003 111.905C48.2406 114.843 54.7201 115.094 59.062 115.169C65.4423 115.279 73.0418 113.776 80.5143 112.123C82.2976 111.728 84.033 111.432 85.7679 111.137C87.3922 110.861 89.016 110.585 90.6784 110.227C92.0352 109.935 93.4365 109.561 94.8304 109.19C95.1729 109.098 95.5152 109.008 95.8559 108.918C93.5231 111.461 91.1623 113.992 88.7829 116.542C86.5729 118.912 84.3462 121.298 82.1103 123.729C80.4961 125.484 78.8672 127.151 77.1758 128.882C76.9673 129.093 76.7606 129.307 76.553 129.52C65.785 128.424 51.1214 132.733 40.8073 141.933C38.1229 144.327 36.6455 147.254 37.1064 150.178C37.3849 151.946 38.1785 152.652 39.4695 153.581Z" fill="#FFC100"/>
</g>
<defs>
<clipPath id="clip0_981_7572">
<rect width="100" height="200" fill="white" transform="translate(77.3066 218.045) rotate(-140.63)"/>
</clipPath>
</defs>
</svg>
