<svg width="95" height="119" viewBox="0 0 95 119" fill="none" xmlns="http://www.w3.org/2000/svg">
<defs>
<linearGradient id="paint0_linear_711_6011" x1="126.5" y1="27.5" x2="157.547" y2="-28.4347" gradientUnits="userSpaceOnUse">
<stop stop-color="#68B2A0"/>
<stop offset="1" stop-color="#CDE0C9"/>
</linearGradient>
<linearGradient id="paint1_linear_711_6011" x1="126.5" y1="17.5" x2="157.547" y2="-38.4347" gradientUnits="userSpaceOnUse">
<stop stop-color="#68B2A0"/>
<stop offset="1" stop-color="#CDE0C9"/>
</linearGradient>
<linearGradient id="paint2_linear_711_6011" x1="138" y1="-34" x2="170.618" y2="85.841" gradientUnits="userSpaceOnUse">
<stop stop-color="#68B2A0"/>
<stop offset="1" stop-color="#CDE0C9"/>
</linearGradient>
</defs>
<path d="M130.99 -8.92184C145.19 -1.92184 161.19 5.87817 164.79 17.6782C168.19 29.2782 159.19 44.8782 153.59 61.2782C147.99 77.6782 145.79 95.0782 135.99 105.078C126.39 115.078 109.19 117.878 91.3904 118.478C73.5904 119.278 55.3904 118.278 39.5904 110.278C23.7904 102.278 10.3904 87.2782 4.59042 69.6782C-1.40958 52.2782 0.190429 32.0782 8.79043 17.2782C17.5904 2.27816 33.3904 -7.32183 48.5904 -14.3218C63.5904 -21.1218 77.7904 -25.1218 90.9904 -23.7218C104.39 -22.5218 116.79 -16.1218 130.99 -8.92184Z" fill="url(#paint0_linear_711_6011)"/>
<path d="M130.99 -18.9218C145.19 -11.9218 161.19 -4.12183 164.79 7.67817C168.19 19.2782 159.19 34.8782 153.59 51.2782C147.99 67.6782 145.79 85.0782 135.99 95.0782C126.39 105.078 109.19 107.878 91.3904 108.478C73.5904 109.278 55.3904 108.278 39.5904 100.278C23.7904 92.2782 10.3904 77.2782 4.59042 59.6782C-1.40958 42.2782 0.190429 22.0782 8.79043 7.27816C17.5904 -7.72184 33.3904 -17.3218 48.5904 -24.3218C63.5904 -31.1218 77.7904 -35.1218 90.9904 -33.7218C104.39 -32.5218 116.79 -26.1218 130.99 -18.9218Z" fill="url(#paint1_linear_711_6011)" stroke="url(#paint2_linear_711_6011)"/>

</svg>
