<svg width="360" height="144" viewBox="0 0 360 144" fill="none" xmlns="http://www.w3.org/2000/svg">
<defs>
<linearGradient id="paint0_linear_711_6018" x1="-70" y1="143.99" x2="-70" y2="24" gradientUnits="userSpaceOnUse">
<stop stop-color="#2C6975"/>
<stop offset="1" stop-color="#68B2A0"/>
</linearGradient>
<linearGradient id="paint1_linear_711_6018" x1="-8.58307e-05" y1="144" x2="-8.58307e-05" y2="4.78905" gradientUnits="userSpaceOnUse">
<stop stop-color="#68B2A0" stop-opacity="0.8"/>
<stop offset="1" stop-color="#2C6975" stop-opacity="0.8"/>
</linearGradient>
<linearGradient id="paint2_linear_711_6018" x1="0" y1="144" x2="0" y2="15.8252" gradientUnits="userSpaceOnUse">
<stop stop-color="#2C6975" stop-opacity="0.6"/>
<stop offset="1" stop-color="#68B2A0" stop-opacity="0.6"/>
</linearGradient>
<clipPath id="clip0_711_6018">
<rect width="360" height="144" fill="white"/>
</clipPath>
</defs>
<g clip-path="url(#clip0_711_6018)">
<path d="M-70 129.59L-60 124.8C-50 119.892 -30 110.488 -10 100.79C10 91.0922 30 81.6882 50 86.3902C70 91.0922 90 110.488 110 119.98C130 129.59 150 129.59 170 117.6C190 105.492 210 81.6882 230 60C250 38.4882 270 19.0922 290 26.3804C310 33.4922 330 67.2882 350 83.9804C370 100.79 390 100.79 410 103.2C430 105.492 450 110.488 470 115.19C490 119.892 510 124.888 530 117.6C550 110.488 570 91.0922 590 83.9804C610 76.6922 630 81.6882 650 79.1902C670 76.6922 690 67.2882 710 57.5902C730 47.8922 750 38.4882 770 33.5804C790 28.7902 810 28.7902 830 31.2C850 33.4922 870 38.4882 890 35.9902C910 33.4922 930 24.0882 950 24C970 24.0882 990 33.4922 1010 33.5804C1030 33.4922 1050 24.0882 1070 24C1090 24.0882 1110 33.4922 1130 47.9804C1150 62.2922 1170 81.6882 1190 86.3902C1210 91.0922 1230 81.6882 1250 69.5804C1270 57.5902 1290 43.1902 1310 35.9902C1330 28.7902 1350 28.7902 1360 28.7902H1370V143.99H1360C1350 143.99 1330 143.99 1310 143.99C1290 143.99 1270 143.99 1250 143.99C1230 143.99 1210 143.99 1190 143.99C1170 143.99 1150 143.99 1130 143.99C1110 143.99 1090 143.99 1070 143.99C1050 143.99 1030 143.99 1010 143.99C990 143.99 970 143.99 950 143.99C930 143.99 910 143.99 890 143.99C870 143.99 850 143.99 830 143.99C810 143.99 790 143.99 770 143.99C750 143.99 730 143.99 710 143.99C690 143.99 670 143.99 650 143.99C630 143.99 610 143.99 590 143.99C570 143.99 550 143.99 530 143.99C510 143.99 490 143.99 470 143.99C450 143.99 430 143.99 410 143.99C390 143.99 370 143.99 350 143.99C330 143.99 310 143.99 290 143.99C270 143.99 250 143.99 230 143.99C210 143.99 190 143.99 170 143.99C150 143.99 130 143.99 110 143.99C90 143.99 70 143.99 50 143.99C30 143.99 10 143.99 -10 143.99C-30 143.99 -50 143.99 -60 143.99H-70V129.59Z" fill="url(#paint0_linear_711_6018)"/>
<path opacity="0.9" d="M0 14.4L10 11.9902C20 9.69797 40 4.70205 60 21.6C80 38.498 100 76.7021 120 81.6098C140 86.4 160 57.6 180 47.9902C200 38.498 220 47.9021 240 64.8C260 81.698 280 105.502 300 96.0098C320 86.4 340 43.2 360 38.4098C380 33.5021 400 67.298 420 69.5902C440 72 460 43.2 480 26.3902C500 9.69797 520 4.70205 540 4.79021C560 4.70205 580 9.69797 600 11.9902C620 14.4 640 14.4 660 16.8098C680 19.1021 700 24.098 720 28.8C740 33.5021 760 38.498 780 55.1902C800 72 820 100.8 840 96.0098C860 91.1021 880 52.898 900 38.4098C920 24.098 940 33.5021 960 36C980 38.498 1000 33.5021 1020 31.2098C1040 28.8 1060 28.8 1080 36C1100 43.2 1120 57.6 1140 62.3902C1160 67.298 1180 62.3021 1200 69.5902C1220 76.7021 1240 96.098 1260 91.1902C1280 86.4 1300 57.6 1320 52.8098C1340 47.9021 1360 67.298 1380 76.7902C1400 86.4 1420 86.4 1430 86.4H1440V144H1430C1420 144 1400 144 1380 144C1360 144 1340 144 1320 144C1300 144 1280 144 1260 144C1240 144 1220 144 1200 144C1180 144 1160 144 1140 144C1120 144 1100 144 1080 144C1060 144 1040 144 1020 144C1000 144 980 144 960 144C940 144 920 144 900 144C880 144 860 144 840 144C820 144 800 144 780 144C760 144 740 144 720 144C700 144 680 144 660 144C640 144 620 144 600 144C580 144 560 144 540 144C520 144 500 144 480 144C460 144 440 144 420 144C400 144 380 144 360 144C340 144 320 144 300 144C280 144 260 144 240 144C220 144 200 144 180 144C160 144 140 144 120 144C100 144 80 144 60 144C40 144 20 144 10 144H0V14.4Z" fill="url(#paint1_linear_711_6018)"/>
<path opacity="0.8" d="M0 115.2L10 112.79C20 110.498 40 105.502 60 86.4C80 67.2979 100 33.502 120 33.5902C140 33.502 160 67.2979 180 79.2C200 91.102 220 81.6979 240 86.4C260 91.102 280 110.498 300 115.2C320 119.902 340 110.498 360 103.21C380 96.0979 400 91.102 420 93.6C440 96.0979 460 105.502 480 93.6C500 81.6979 520 47.902 540 43.2C560 38.4979 580 62.302 600 76.7902C620 91.102 640 96.0979 660 81.6098C680 67.2979 700 33.502 720 21.6C740 9.69793 760 19.102 780 24.0098C800 28.8 820 28.8 840 38.4098C860 47.902 880 67.2979 900 81.6098C920 96.0979 940 105.502 960 100.8C980 96.0979 1000 76.702 1020 74.4098C1040 72 1060 86.4 1080 76.7902C1100 67.2979 1120 33.502 1140 21.6C1160 9.69793 1180 19.102 1200 28.8C1220 38.4979 1240 47.902 1260 64.8C1280 81.6979 1300 105.502 1320 96.0098C1340 86.4 1360 43.2 1380 40.7902C1400 38.4979 1420 76.702 1430 96.0098L1440 115.2V144H1430C1420 144 1400 144 1380 144C1360 144 1340 144 1320 144C1300 144 1280 144 1260 144C1240 144 1220 144 1200 144C1180 144 1160 144 1140 144C1120 144 1100 144 1080 144C1060 144 1040 144 1020 144C1000 144 980 144 960 144C940 144 920 144 900 144C880 144 860 144 840 144C820 144 800 144 780 144C760 144 740 144 720 144C700 144 680 144 660 144C640 144 620 144 600 144C580 144 560 144 540 144C520 144 500 144 480 144C460 144 440 144 420 144C400 144 380 144 360 144C340 144 320 144 300 144C280 144 260 144 240 144C220 144 200 144 180 144C160 144 140 144 120 144C100 144 80 144 60 144C40 144 20 144 10 144H0V115.2Z" fill="url(#paint2_linear_711_6018)"/>
</g>

</svg>
