<svg width="28" height="28" viewBox="0 0 28 28" fill="none" xmlns="http://www.w3.org/2000/svg">
<rect width="28" height="28" rx="8" fill="#2C6976"/>
<path fill-rule="evenodd" clip-rule="evenodd" d="M15.165 13.9934L15.1634 13.6393C15.1513 12.2348 15.0666 10.9817 14.9206 10.1876C14.9206 10.1733 14.7613 9.38572 14.6599 9.12355C14.5006 8.74463 14.2126 8.42299 13.8515 8.2192C13.5624 8.0738 13.2592 8 12.9417 8C12.6922 8.01157 12.2806 8.13714 11.9869 8.24242L11.7428 8.33596C10.1261 8.97815 7.03561 11.0766 5.85199 12.3598L5.76473 12.4495L5.37527 12.8698C5.12982 13.1915 5 13.5847 5 14.0077C5 14.3866 5.11563 14.7656 5.3469 15.0718C5.41614 15.171 5.52766 15.2983 5.62693 15.4058L6.006 15.8026C7.31046 17.1243 10.1348 18.9782 11.5988 19.5924C11.5988 19.6057 12.5086 19.9857 12.9417 20H12.9995C13.6639 20 14.2846 19.6211 14.6021 19.0086C14.6888 18.8412 14.772 18.5132 14.8352 18.2252L14.949 17.6813C15.0788 16.8067 15.165 15.465 15.165 13.9934ZM21.4967 15.5183C22.3269 15.5183 23 14.8387 23 14.0004C23 13.1622 22.3269 12.4825 21.4967 12.4825L17.7975 12.8097C17.1463 12.8097 16.6183 13.3417 16.6183 14.0004C16.6183 14.6581 17.1463 15.1912 17.7975 15.1912L21.4967 15.5183Z" fill="white"/>
</svg>
