<svg width="24" height="24" viewBox="0 0 24 24" fill="none" xmlns="http://www.w3.org/2000/svg">
<path d="M10.0286 0.375573C10.3728 0.131249 10.7845 0 11.2067 0C11.6288 0 12.0405 0.131249 12.3848 0.375573L21.3209 6.71579C22.4311 7.50373 21.8752 9.25371 20.5147 9.25676H1.90327C0.538104 9.25676 -0.0207881 7.50526 1.09394 6.71579L10.0286 0.375573ZM11.2074 6.01183C11.545 6.01183 11.8687 5.87773 12.1074 5.63904C12.3461 5.40035 12.4802 5.07661 12.4802 4.73905C12.4802 4.40149 12.3461 4.07775 12.1074 3.83906C11.8687 3.60037 11.545 3.46627 11.2074 3.46627C10.8699 3.46627 10.5461 3.60037 10.3074 3.83906C10.0688 4.07775 9.93466 4.40149 9.93466 4.73905C9.93466 5.07661 10.0688 5.40035 10.3074 5.63904C10.5461 5.87773 10.8699 6.01183 11.2074 6.01183ZM2.80879 10.7853V16.8934H5.86285V10.7853H2.80879ZM0.518252 21.728C0.518252 19.9001 1.99947 18.4189 3.82579 18.4189H18.5876C19.4651 18.4193 20.3065 18.7681 20.927 19.3886C21.5475 20.0091 21.8962 20.8505 21.8966 21.728V22.2365C21.8966 22.439 21.8162 22.6332 21.673 22.7764C21.5298 22.9196 21.3356 23 21.1331 23H1.28177C1.07927 23 0.885067 22.9196 0.74188 22.7764C0.598694 22.6332 0.518252 22.439 0.518252 22.2365V21.728ZM19.6061 10.7838V16.8919H16.552V10.7853H19.6061V10.7838ZM15.025 10.7838V16.8919H11.971V10.7853H15.025V10.7838ZM10.4439 10.7838V16.8919H7.38987V10.7853H10.4439V10.7838Z" fill="#777777"/>
</svg>
