<svg width="20" height="20" viewBox="0 0 20 20" fill="none" xmlns="http://www.w3.org/2000/svg">
<path d="M0 5C0 4.33696 0.263392 3.70107 0.732233 3.23223C1.20107 2.76339 1.83696 2.5 2.5 2.5H17.5C18.163 2.5 18.7989 2.76339 19.2678 3.23223C19.7366 3.70107 20 4.33696 20 5V15C20 15.663 19.7366 16.2989 19.2678 16.7678C18.7989 17.2366 18.163 17.5 17.5 17.5H2.5C1.83696 17.5 1.20107 17.2366 0.732233 16.7678C0.263392 16.2989 0 15.663 0 15V5ZM3.125 6.25C2.95924 6.25 2.80027 6.31585 2.68306 6.43306C2.56585 6.55027 2.5 6.70924 2.5 6.875V8.125C2.5 8.29076 2.56585 8.44973 2.68306 8.56694C2.80027 8.68415 2.95924 8.75 3.125 8.75H5.625C5.79076 8.75 5.94973 8.68415 6.06694 8.56694C6.18415 8.44973 6.25 8.29076 6.25 8.125V6.875C6.25 6.70924 6.18415 6.55027 6.06694 6.43306C5.94973 6.31585 5.79076 6.25 5.625 6.25H3.125ZM3.125 10C2.95924 10 2.80027 10.0658 2.68306 10.1831C2.56585 10.3003 2.5 10.4592 2.5 10.625C2.5 10.7908 2.56585 10.9497 2.68306 11.0669C2.80027 11.1842 2.95924 11.25 3.125 11.25H9.375C9.54076 11.25 9.69973 11.1842 9.81694 11.0669C9.93415 10.9497 10 10.7908 10 10.625C10 10.4592 9.93415 10.3003 9.81694 10.1831C9.69973 10.0658 9.54076 10 9.375 10H3.125ZM3.125 12.5C2.95924 12.5 2.80027 12.5658 2.68306 12.6831C2.56585 12.8003 2.5 12.9592 2.5 13.125C2.5 13.2908 2.56585 13.4497 2.68306 13.5669C2.80027 13.6842 2.95924 13.75 3.125 13.75H4.375C4.54076 13.75 4.69973 13.6842 4.81694 13.5669C4.93415 13.4497 5 13.2908 5 13.125C5 12.9592 4.93415 12.8003 4.81694 12.6831C4.69973 12.5658 4.54076 12.5 4.375 12.5H3.125ZM6.875 12.5C6.70924 12.5 6.55027 12.5658 6.43306 12.6831C6.31585 12.8003 6.25 12.9592 6.25 13.125C6.25 13.2908 6.31585 13.4497 6.43306 13.5669C6.55027 13.6842 6.70924 13.75 6.875 13.75H8.125C8.29076 13.75 8.44973 13.6842 8.56694 13.5669C8.68415 13.4497 8.75 13.2908 8.75 13.125C8.75 12.9592 8.68415 12.8003 8.56694 12.6831C8.44973 12.5658 8.29076 12.5 8.125 12.5H6.875ZM10.625 12.5C10.4592 12.5 10.3003 12.5658 10.1831 12.6831C10.0658 12.8003 10 12.9592 10 13.125C10 13.2908 10.0658 13.4497 10.1831 13.5669C10.3003 13.6842 10.4592 13.75 10.625 13.75H11.875C12.0408 13.75 12.1997 13.6842 12.3169 13.5669C12.4342 13.4497 12.5 13.2908 12.5 13.125C12.5 12.9592 12.4342 12.8003 12.3169 12.6831C12.1997 12.5658 12.0408 12.5 11.875 12.5H10.625ZM14.375 12.5C14.2092 12.5 14.0503 12.5658 13.9331 12.6831C13.8158 12.8003 13.75 12.9592 13.75 13.125C13.75 13.2908 13.8158 13.4497 13.9331 13.5669C14.0503 13.6842 14.2092 13.75 14.375 13.75H15.625C15.7908 13.75 15.9497 13.6842 16.0669 13.5669C16.1842 13.4497 16.25 13.2908 16.25 13.125C16.25 12.9592 16.1842 12.8003 16.0669 12.6831C15.9497 12.5658 15.7908 12.5 15.625 12.5H14.375Z" fill="#2C6976"/>
</svg>
