<svg width="20" height="20" viewBox="0 0 20 20" fill="none" xmlns="http://www.w3.org/2000/svg">
<path d="M17.5 5.625H13.75V6.875H17.5V9.375H15V10.625H17.5V13.125H13.75V14.375H17.5C17.8314 14.3745 18.149 14.2426 18.3833 14.0083C18.6176 13.774 18.7495 13.4564 18.75 13.125V6.875C18.7497 6.54358 18.6179 6.22583 18.3835 5.99148C18.1492 5.75713 17.8314 5.62533 17.5 5.625ZM12.5 14.375H7.5V10.625C7.50033 10.2936 7.63213 9.97583 7.86648 9.74148C8.10083 9.50713 8.41858 9.37533 8.75 9.375H11.25V6.875H7.5V5.625H11.25C11.5814 5.62533 11.8992 5.75713 12.1335 5.99148C12.3679 6.22583 12.4997 6.54358 12.5 6.875V9.375C12.4997 9.70642 12.3679 10.0242 12.1335 10.2585C11.8992 10.4929 11.5814 10.6247 11.25 10.625H8.75V13.125H12.5V14.375ZM1.5625 14.0625V13.4375H3.4375V6.5625H1.5625V5.9375H4.0625V13.4375H5.9375V14.0625H1.5625Z" fill="#2C6976"/>
<path d="M3.75 6.25V13.75V6.25ZM4.375 5.625H1.25V6.875H3.125V13.125H1.25V14.375H6.25V13.125H4.375V5.625Z" fill="#2C6976"/>
</svg>
