<svg width="20" height="20" viewBox="0 0 20 20" fill="none" xmlns="http://www.w3.org/2000/svg">
<path fill-rule="evenodd" clip-rule="evenodd" d="M14.5837 16.6665C15.1362 16.6665 15.6661 16.447 16.0568 16.0563C16.4475 15.6656 16.667 15.1357 16.667 14.5832C16.667 14.0306 16.4475 13.5007 16.0568 13.11C15.6661 12.7193 15.1362 12.4998 14.5837 12.4998C14.0311 12.4998 13.5012 12.7193 13.1105 13.11C12.7198 13.5007 12.5003 14.0306 12.5003 14.5832C12.5003 15.1357 12.7198 15.6656 13.1105 16.0563C13.5012 16.447 14.0311 16.6665 14.5837 16.6665ZM14.5837 17.4998C15.3572 17.4998 16.0991 17.1925 16.6461 16.6456C17.193 16.0986 17.5003 15.3567 17.5003 14.5832C17.5003 13.8096 17.193 13.0678 16.6461 12.5208C16.0991 11.9738 15.3572 11.6665 14.5837 11.6665C13.8101 11.6665 13.0682 11.9738 12.5213 12.5208C11.9743 13.0678 11.667 13.8096 11.667 14.5832C11.667 15.3567 11.9743 16.0986 12.5213 16.6456C13.0682 17.1925 13.8101 17.4998 14.5837 17.4998Z" fill="#2C6976"/>
<path fill-rule="evenodd" clip-rule="evenodd" d="M14.5837 13.125C14.6942 13.125 14.8001 13.1689 14.8783 13.247C14.9564 13.3252 15.0003 13.4312 15.0003 13.5417V14.4108L15.2949 14.7054C15.3708 14.784 15.4128 14.8893 15.4119 14.9985C15.4109 15.1077 15.3671 15.2123 15.2898 15.2895C15.2126 15.3668 15.1081 15.4106 14.9988 15.4115C14.8896 15.4125 14.7843 15.3705 14.7057 15.2946L14.167 14.7558V13.5417C14.167 13.4312 14.2109 13.3252 14.289 13.247C14.3672 13.1689 14.4732 13.125 14.5837 13.125ZM5.83366 9.58333H5.00033V10.4167H5.83366V9.58333ZM5.00033 8.75C4.77931 8.75 4.56735 8.8378 4.41107 8.99408C4.25479 9.15036 4.16699 9.36232 4.16699 9.58333V10.4167C4.16699 10.6377 4.25479 10.8496 4.41107 11.0059C4.56735 11.1622 4.77931 11.25 5.00033 11.25H5.83366C6.05467 11.25 6.26663 11.1622 6.42291 11.0059C6.57919 10.8496 6.66699 10.6377 6.66699 10.4167V9.58333C6.66699 9.36232 6.57919 9.15036 6.42291 8.99408C6.26663 8.8378 6.05467 8.75 5.83366 8.75H5.00033ZM9.16699 9.58333H8.33366V10.4167H9.16699V9.58333ZM8.33366 8.75C8.11265 8.75 7.90068 8.8378 7.7444 8.99408C7.58812 9.15036 7.50033 9.36232 7.50033 9.58333V10.4167C7.50033 10.6377 7.58812 10.8496 7.7444 11.0059C7.90068 11.1622 8.11265 11.25 8.33366 11.25H9.16699C9.38801 11.25 9.59997 11.1622 9.75625 11.0059C9.91253 10.8496 10.0003 10.6377 10.0003 10.4167V9.58333C10.0003 9.36232 9.91253 9.15036 9.75625 8.99408C9.59997 8.8378 9.38801 8.75 9.16699 8.75H8.33366ZM12.5003 9.58333H11.667V10.4167H12.5003V9.58333ZM11.667 8.75C11.446 8.75 11.234 8.8378 11.0777 8.99408C10.9215 9.15036 10.8337 9.36232 10.8337 9.58333V10.4167C10.8337 10.6377 10.9215 10.8496 11.0777 11.0059C11.234 11.1622 11.446 11.25 11.667 11.25H12.5003C12.7213 11.25 12.9333 11.1622 13.0896 11.0059C13.2459 10.8496 13.3337 10.6377 13.3337 10.4167V9.58333C13.3337 9.36232 13.2459 9.15036 13.0896 8.99408C12.9333 8.8378 12.7213 8.75 12.5003 8.75H11.667ZM5.83366 12.9167H5.00033V13.75H5.83366V12.9167ZM5.00033 12.0833C4.77931 12.0833 4.56735 12.1711 4.41107 12.3274C4.25479 12.4837 4.16699 12.6957 4.16699 12.9167V13.75C4.16699 13.971 4.25479 14.183 4.41107 14.3393C4.56735 14.4955 4.77931 14.5833 5.00033 14.5833H5.83366C6.05467 14.5833 6.26663 14.4955 6.42291 14.3393C6.57919 14.183 6.66699 13.971 6.66699 13.75V12.9167C6.66699 12.6957 6.57919 12.4837 6.42291 12.3274C6.26663 12.1711 6.05467 12.0833 5.83366 12.0833H5.00033ZM9.16699 12.9167H8.33366V13.75H9.16699V12.9167ZM8.33366 12.0833C8.11265 12.0833 7.90068 12.1711 7.7444 12.3274C7.58812 12.4837 7.50033 12.6957 7.50033 12.9167V13.75C7.50033 13.971 7.58812 14.183 7.7444 14.3393C7.90068 14.4955 8.11265 14.5833 8.33366 14.5833H9.16699C9.38801 14.5833 9.59997 14.4955 9.75625 14.3393C9.91253 14.183 10.0003 13.971 10.0003 13.75V12.9167C10.0003 12.6957 9.91253 12.4837 9.75625 12.3274C9.59997 12.1711 9.38801 12.0833 9.16699 12.0833H8.33366Z" fill="#2C6976"/>
<path fill-rule="evenodd" clip-rule="evenodd" d="M3.33333 5C3.33333 4.88949 3.37723 4.78351 3.45537 4.70537C3.53351 4.62723 3.63949 4.58333 3.75 4.58333H5.83333V3.75H3.75C3.41848 3.75 3.10054 3.8817 2.86612 4.11612C2.6317 4.35054 2.5 4.66848 2.5 5V15C2.5 15.3315 2.6317 15.6495 2.86612 15.8839C3.10054 16.1183 3.41848 16.25 3.75 16.25H12.1896C12.0119 15.9955 11.8761 15.7141 11.7875 15.4167H3.75C3.63949 15.4167 3.53351 15.3728 3.45537 15.2946C3.37723 15.2165 3.33333 15.1105 3.33333 15V5ZM14.1667 11.6958C14.443 11.6563 14.7236 11.6563 15 11.6958V5C15 4.66848 14.8683 4.35054 14.6339 4.11612C14.3995 3.8817 14.0815 3.75 13.75 3.75H12.5V4.58333H13.75C13.8605 4.58333 13.9665 4.62723 14.0446 4.70537C14.1228 4.78351 14.1667 4.88949 14.1667 5V11.6958ZM6.66667 4.58333H11.0679V3.75H6.66667V4.58333Z" fill="#2C6976"/>
<path fill-rule="evenodd" clip-rule="evenodd" d="M11.667 3.75H6.66699V5C6.66699 5.11051 6.62309 5.21649 6.54495 5.29463C6.46681 5.37277 6.36083 5.41667 6.25033 5.41667C6.13982 5.41667 6.03384 5.37277 5.9557 5.29463C5.87756 5.21649 5.83366 5.11051 5.83366 5V3.75H3.75033C3.52931 3.75 3.31735 3.8378 3.16107 3.99408C3.00479 4.15036 2.91699 4.36232 2.91699 4.58333V6.66667C2.91699 6.88768 3.00479 7.09964 3.16107 7.25592C3.31735 7.4122 3.52931 7.5 3.75033 7.5H13.7503C13.9713 7.5 14.1833 7.4122 14.3396 7.25592C14.4959 7.09964 14.5837 6.88768 14.5837 6.66667V4.58333C14.5837 4.36232 14.4959 4.15036 14.3396 3.99408C14.1833 3.8378 13.9713 3.75 13.7503 3.75H12.5003V5C12.5003 5.11051 12.4564 5.21649 12.3783 5.29463C12.3001 5.37277 12.1942 5.41667 12.0837 5.41667C11.9732 5.41667 11.8672 5.37277 11.789 5.29463C11.7109 5.21649 11.667 5.11051 11.667 5V3.75Z" fill="#2C6976"/>
<path fill-rule="evenodd" clip-rule="evenodd" d="M14.9997 7.49984H3.33301V6.6665H14.9997V7.49984Z" fill="#2C6976"/>
<path d="M5 2.91667C5 2.80616 5.0439 2.70018 5.12204 2.62204C5.20018 2.5439 5.30616 2.5 5.41667 2.5C5.52717 2.5 5.63315 2.5439 5.71129 2.62204C5.78943 2.70018 5.83333 2.80616 5.83333 2.91667V4.58333C5.83333 4.69384 5.78943 4.79982 5.71129 4.87796C5.63315 4.9561 5.52717 5 5.41667 5C5.30616 5 5.20018 4.9561 5.12204 4.87796C5.0439 4.79982 5 4.69384 5 4.58333V2.91667ZM10.8333 2.91667C10.8333 2.80616 10.8772 2.70018 10.9554 2.62204C11.0335 2.5439 11.1395 2.5 11.25 2.5C11.3605 2.5 11.4665 2.5439 11.5446 2.62204C11.6228 2.70018 11.6667 2.80616 11.6667 2.91667V4.58333C11.6667 4.69384 11.6228 4.79982 11.5446 4.87796C11.4665 4.9561 11.3605 5 11.25 5C11.1395 5 11.0335 4.9561 10.9554 4.87796C10.8772 4.79982 10.8333 4.69384 10.8333 4.58333V2.91667Z" fill="#2C6976"/>
</svg>
