<svg width="25" height="24" viewBox="0 0 25 24" fill="none" xmlns="http://www.w3.org/2000/svg">
<defs>
<linearGradient id="paint0_linear_1043_5307" x1="23.2799" y1="22" x2="1.87988" y2="-1.1916e-06" gradientUnits="userSpaceOnUse">
<stop stop-color="#68B2A0"/>
<stop offset="1" stop-color="#89B6BF"/>
</linearGradient>
</defs>
<path d="M0.879883 6C0.879883 2.68629 3.56617 0 6.87988 0H18.8799C22.1936 0 24.8799 2.68629 24.8799 6V18C24.8799 21.3137 22.1936 24 18.8799 24H6.87988C3.56617 24 0.879883 21.3137 0.879883 18V6Z" fill="url(#paint0_linear_1043_5307)"/>
<path d="M11.0944 6.28585H14.6658C14.6658 5.81225 14.4777 5.35805 14.1428 5.02316C13.8079 4.68828 13.3537 4.50014 12.8801 4.50014C12.4065 4.50014 11.9523 4.68828 11.6174 5.02316C11.2825 5.35805 11.0944 5.81225 11.0944 6.28585ZM10.0229 6.28585C10.0229 5.52809 10.324 4.80137 10.8598 4.26555C11.3956 3.72973 12.1223 3.42871 12.8801 3.42871C13.6379 3.42871 14.3646 3.72973 14.9004 4.26555C15.4362 4.80137 15.7372 5.52809 15.7372 6.28585H20.2015C20.3436 6.28585 20.4799 6.34229 20.5803 6.44276C20.6808 6.54323 20.7372 6.67949 20.7372 6.82157C20.7372 6.96365 20.6808 7.09991 20.5803 7.20038C20.4799 7.30084 20.3436 7.35728 20.2015 7.35728H19.2658L18.3965 17.788C18.3333 18.5468 17.9872 19.2541 17.4269 19.7697C16.8666 20.2853 16.133 20.5715 15.3715 20.5716H10.3887C9.62723 20.5715 8.89362 20.2853 8.33331 19.7697C7.773 19.2541 7.42691 18.5468 7.36366 17.788L6.49438 7.35728H5.55866C5.41658 7.35728 5.28032 7.30084 5.17986 7.20038C5.07939 7.09991 5.02295 6.96365 5.02295 6.82157C5.02295 6.67949 5.07939 6.54323 5.17986 6.44276C5.28032 6.34229 5.41658 6.28585 5.55866 6.28585H10.0229ZM11.8087 10.393C11.8087 10.2509 11.7522 10.1147 11.6518 10.0142C11.5513 9.91372 11.415 9.85728 11.2729 9.85728C11.1309 9.85728 10.9946 9.91372 10.8941 10.0142C10.7937 10.1147 10.7372 10.2509 10.7372 10.393V16.4644C10.7372 16.6065 10.7937 16.7428 10.8941 16.8432C10.9946 16.9437 11.1309 17.0001 11.2729 17.0001C11.415 17.0001 11.5513 16.9437 11.6518 16.8432C11.7522 16.7428 11.8087 16.6065 11.8087 16.4644V10.393ZM14.4872 9.85728C14.3452 9.85728 14.2089 9.91372 14.1084 10.0142C14.008 10.1147 13.9515 10.2509 13.9515 10.393V16.4644C13.9515 16.6065 14.008 16.7428 14.1084 16.8432C14.2089 16.9437 14.3452 17.0001 14.4872 17.0001C14.6293 17.0001 14.7656 16.9437 14.866 16.8432C14.9665 16.7428 15.0229 16.6065 15.0229 16.4644V10.393C15.0229 10.2509 14.9665 10.1147 14.866 10.0142C14.7656 9.91372 14.6293 9.85728 14.4872 9.85728Z" fill="#F8F8F8"/>

</svg>
