<svg width="21" height="20" viewBox="0 0 21 20" fill="none" xmlns="http://www.w3.org/2000/svg">
<path d="M14.4149 3.20062C14.8638 2.7519 15.4725 2.49988 16.1072 2.5C16.7419 2.50012 17.3506 2.75236 17.7993 3.20124C18.248 3.65012 18.5 4.25887 18.4999 4.89357C18.4998 5.52826 18.2475 6.13692 17.7987 6.58563L16.8824 7.50064L13.4961 4.11812L14.4136 3.20062H14.4149ZM12.6149 5.00188L5.16984 12.4444C4.94386 12.6706 4.77354 12.9462 4.67234 13.2494L3.52984 16.6782C3.49334 16.7882 3.48816 16.9062 3.51487 17.019C3.54158 17.1318 3.59914 17.235 3.68111 17.3169C3.76307 17.3989 3.86622 17.4564 3.97902 17.4832C4.09181 17.5099 4.20982 17.5047 4.31984 17.4682L7.74861 16.3257C8.05236 16.2257 8.32736 16.0544 8.55361 15.8282L15.9986 8.38564L12.6136 5.00188H12.6149Z" fill="#2C6976"/>
</svg>
