<svg width="20" height="20" viewBox="0 0 20 20" fill="none" xmlns="http://www.w3.org/2000/svg">
<path d="M15.8332 3.33325H4.1665C3.50346 3.33325 2.86758 3.59664 2.39874 4.06549C1.9299 4.53433 1.6665 5.17021 1.6665 5.83325V14.1666C1.6665 14.8296 1.9299 15.4655 2.39874 15.9344C2.86758 16.4032 3.50346 16.6666 4.1665 16.6666H15.8332C16.4962 16.6666 17.1321 16.4032 17.6009 15.9344C18.0698 15.4655 18.3332 14.8296 18.3332 14.1666V5.83325C18.3332 5.17021 18.0698 4.53433 17.6009 4.06549C17.1321 3.59664 16.4962 3.33325 15.8332 3.33325ZM15.8332 4.99992L10.4165 8.72492C10.2898 8.79806 10.1461 8.83656 9.99984 8.83656C9.85356 8.83656 9.70985 8.79806 9.58317 8.72492L4.1665 4.99992H15.8332Z" fill="#2C6976"/>
</svg>
