<svg width="40" height="40" viewBox="0 0 40 40" fill="none" xmlns="http://www.w3.org/2000/svg">
<rect width="40" height="40" rx="20" fill="#1877F2"/>
<g clip-path="url(#clip0_816_6856)">
<rect width="24" height="24" transform="translate(8 8)" fill="#1877F2"/>
<path d="M31.5 20.0699C31.5 13.7186 26.3513 8.56988 20 8.56988C13.6487 8.56988 8.5 13.7186 8.5 20.0699C8.5 25.8099 12.7054 30.5674 18.2031 31.4302V23.3941H15.2832V20.0699H18.2031V17.5363C18.2031 14.6541 19.92 13.0621 22.5468 13.0621C23.805 13.0621 25.1211 13.2867 25.1211 13.2867V16.1168H23.671C22.2424 16.1168 21.7969 17.0032 21.7969 17.9127V20.0699H24.9863L24.4765 23.3941H21.7969V31.4302C27.2946 30.5674 31.5 25.8099 31.5 20.0699Z" fill="white"/>
</g>
<defs>
<clipPath id="clip0_816_6856">
<rect width="24" height="24" fill="white" transform="translate(8 8)"/>
</clipPath>
</defs>
</svg>
