<svg width="40" height="40" viewBox="0 0 40 40" fill="none" xmlns="http://www.w3.org/2000/svg">
<rect x="0.25" y="0.25" width="39.5" height="39.5" rx="19.75" fill="white"/>
<rect width="24" height="24" transform="translate(8 8)" fill="white"/>
<path fill-rule="evenodd" clip-rule="evenodd" d="M31.04 20.2615C31.04 19.446 30.9668 18.6619 30.8309 17.9092H20V22.3576H26.1891C25.9225 23.7951 25.1123 25.013 23.8943 25.8285V28.714H27.6109C29.7855 26.7119 31.04 23.7637 31.04 20.2615Z" fill="#4285F4"/>
<path fill-rule="evenodd" clip-rule="evenodd" d="M20 31.5001C23.105 31.5001 25.7081 30.4703 27.6109 28.7139L23.8943 25.8285C22.8645 26.5185 21.5472 26.9262 20 26.9262C17.0047 26.9262 14.4695 24.9032 13.5652 22.1851H9.72314V25.1646C11.6154 28.923 15.5045 31.5001 20 31.5001Z" fill="#34A853"/>
<path fill-rule="evenodd" clip-rule="evenodd" d="M13.5652 22.185C13.3352 21.495 13.2045 20.7579 13.2045 20C13.2045 19.242 13.3352 18.505 13.5652 17.815V14.8354H9.72318C8.94432 16.3879 8.5 18.1443 8.5 20C8.5 21.8557 8.94432 23.612 9.72318 25.1645L13.5652 22.185Z" fill="#FBBC05"/>
<path fill-rule="evenodd" clip-rule="evenodd" d="M20 13.0739C21.6884 13.0739 23.2043 13.6541 24.3961 14.7936L27.6945 11.4952C25.7029 9.63955 23.0997 8.5 20 8.5C15.5045 8.5 11.6154 11.077 9.72314 14.8355L13.5652 17.815C14.4695 15.0968 17.0047 13.0739 20 13.0739Z" fill="#EA4335"/>
<rect x="0.25" y="0.25" width="39.5" height="39.5" rx="19.75" stroke="#888888" stroke-width="0.5"/>
</svg>
