<svg width="20" height="20" viewBox="0 0 20 20" fill="none" xmlns="http://www.w3.org/2000/svg">
<path d="M6.72783 10.1617L3.51033 6.94422C2.24366 8.32506 1.76366 9.70839 1.75533 9.73672L1.66699 10.0001L1.75449 10.2634C1.77283 10.3192 3.68449 15.8334 10.0453 15.8334C10.8195 15.8334 11.5245 15.7484 12.172 15.6059L9.88366 13.3176C9.05973 13.2772 8.28028 12.9317 7.69698 12.3484C7.11367 11.7651 6.76822 10.9857 6.72783 10.1617ZM10.0453 4.16672C8.49949 4.16672 7.23283 4.50339 6.17699 4.99839L3.08949 1.91089L1.91116 3.08922L16.9112 18.0892L18.0895 16.9109L15.3412 14.1626C17.5395 12.5351 18.3237 10.2984 18.3353 10.2634L18.4228 10.0001L18.3353 9.73672C18.317 9.68089 16.4062 4.16672 10.0453 4.16672ZM11.6337 10.4551C11.7895 9.89089 11.657 9.25589 11.2237 8.82172C10.7903 8.38756 10.1545 8.25589 9.59033 8.41172L8.33366 7.15506C8.84863 6.83837 9.44078 6.66943 10.0453 6.66672C11.8837 6.66672 13.3787 8.16172 13.3787 10.0001C13.3762 10.6045 13.2069 11.1965 12.8895 11.7109L11.6337 10.4551Z" fill="#2C6976"/>
</svg>
