<svg width="18" height="24" viewBox="0 0 18 24" fill="none" xmlns="http://www.w3.org/2000/svg">
<g clip-path="url(#clip0_1024_5815)">
<path d="M3 0C1.34531 0 0 1.34531 0 3V21C0 22.6547 1.34531 24 3 24H15C16.6547 24 18 22.6547 18 21V7.5H12C11.1703 7.5 10.5 6.82969 10.5 6V0H3ZM12 0V6H18L12 0ZM3 3.75C3 3.3375 3.3375 3 3.75 3H6.75C7.1625 3 7.5 3.3375 7.5 3.75C7.5 4.1625 7.1625 4.5 6.75 4.5H3.75C3.3375 4.5 3 4.1625 3 3.75ZM3 6.75C3 6.3375 3.3375 6 3.75 6H6.75C7.1625 6 7.5 6.3375 7.5 6.75C7.5 7.1625 7.1625 7.5 6.75 7.5H3.75C3.3375 7.5 3 7.1625 3 6.75ZM9 10.125C9.4125 10.125 9.75 10.4625 9.75 10.875V11.6859C10.1484 11.7422 10.5328 11.8312 10.8797 11.925C11.2781 12.0328 11.5172 12.4406 11.4094 12.8438C11.3016 13.2469 10.8938 13.4812 10.4906 13.3734C9.97031 13.2328 9.45937 13.1297 8.98594 13.125C8.59219 13.1203 8.17031 13.2094 7.87969 13.3828C7.6125 13.5422 7.5 13.725 7.5 13.9828C7.5 14.1562 7.56094 14.2875 7.84219 14.4562C8.16563 14.6484 8.62031 14.7891 9.21094 14.9672L9.23438 14.9719C9.76406 15.1312 10.4203 15.3281 10.9359 15.6562C11.5031 16.0125 11.9859 16.5797 12 17.4469C12.0141 18.3516 11.55 19.0078 10.9266 19.3969C10.5656 19.6219 10.1578 19.7531 9.75 19.8234V20.625C9.75 21.0375 9.4125 21.375 9 21.375C8.5875 21.375 8.25 21.0375 8.25 20.625V19.7906C7.725 19.6922 7.23281 19.5234 6.80156 19.3734C6.70313 19.3406 6.60469 19.3078 6.51094 19.275C6.11719 19.1438 5.90625 18.7172 6.0375 18.3281C6.16875 17.9391 6.59531 17.7234 6.98438 17.8547C7.10156 17.8922 7.20938 17.9297 7.31719 17.9672C7.95469 18.1828 8.47031 18.3609 9.01875 18.375C9.44531 18.3891 9.85781 18.2953 10.1297 18.1266C10.3688 17.9766 10.5 17.7844 10.4953 17.4703C10.4906 17.2547 10.4109 17.1047 10.1344 16.9266C9.81563 16.725 9.36094 16.5797 8.775 16.4016L8.7 16.3781C8.18438 16.2234 7.56094 16.0359 7.06875 15.7359C6.50625 15.3984 6.00938 14.85 6.00469 13.9875C6 13.0781 6.51094 12.45 7.12031 12.0891C7.47187 11.8828 7.86094 11.7516 8.25 11.6812V10.875C8.25 10.4625 8.5875 10.125 9 10.125Z" fill="#777777"/>
</g>
<defs>
<clipPath id="clip0_1024_5815">
<rect width="18" height="24" fill="white"/>
</clipPath>
</defs>
</svg>
