<svg width="20" height="20" viewBox="0 0 20 20" fill="none" xmlns="http://www.w3.org/2000/svg">
<g clip-path="url(#clip0_1043_5642)">
<path d="M6.11122 9.1665L5.55566 10.8887H6.66678L6.11122 9.1665Z" fill="#2C6976"/>
<path d="M16.8334 1.6665H7.9445V4.44428H10.1667V5.55539H2.9445C2.00005 5.55539 1.27783 6.27762 1.27783 7.22206V13.3332C1.27783 14.2776 2.00005 14.9998 2.9445 14.9998H3.50005V17.8332L7.00005 14.9998H10.7223V11.1109H16.8334C17.7778 11.1109 18.5001 10.3887 18.5001 9.44428V3.33317C18.5001 2.38873 17.7778 1.6665 16.8334 1.6665ZM7.27783 12.7221L7.00005 11.8332H5.27783L4.9445 12.7221H3.61117L5.4445 7.77762H6.77783L8.61117 12.7221H7.27783ZM15.7223 8.33317V9.44428C15.0001 9.44428 14.2223 9.22206 13.5556 8.88873C12.8889 9.22206 12.1112 9.38873 11.3334 9.44428L11.2778 8.33317C11.6667 8.33317 12.0556 8.27762 12.4445 8.1665C11.9445 7.6665 11.6112 7.05539 11.4445 6.38873H12.6112C12.7778 6.88873 13.1112 7.27762 13.5001 7.61095C14.1112 7.11095 14.5001 6.38873 14.5556 5.55539H11.2223V4.44428H12.8889V3.33317H14.0001V4.44428H15.8334L15.8889 4.99984C15.9445 6.1665 15.5001 7.33317 14.6667 8.1665C15.0556 8.27762 15.3889 8.33317 15.7223 8.33317Z" fill="#2C6976"/>
</g>
<defs>
<clipPath id="clip0_1043_5642">
<rect width="20" height="20" fill="white"/>
</clipPath>
</defs>
</svg>
