<svg width="16" height="20" viewBox="0 0 16 20" fill="none" xmlns="http://www.w3.org/2000/svg">
<path d="M14.3333 8.33317C14.3333 13.3332 7.66667 18.3332 7.66667 18.3332C7.66667 18.3332 1 13.3332 1 8.33317C1 6.56506 1.70238 4.86937 2.95262 3.61913C4.20286 2.36888 5.89856 1.6665 7.66667 1.6665C9.43478 1.6665 11.1305 2.36888 12.3807 3.61913C13.631 4.86937 14.3333 6.56506 14.3333 8.33317V8.33317Z" stroke="white" stroke-width="2" stroke-linecap="round" stroke-linejoin="round"/>
<path d="M7.66699 10.833C9.0477 10.833 10.167 9.71372 10.167 8.33301C10.167 6.9523 9.0477 5.83301 7.66699 5.83301C6.28628 5.83301 5.16699 6.9523 5.16699 8.33301C5.16699 9.71372 6.28628 10.833 7.66699 10.833Z" stroke="white" stroke-width="2" stroke-linecap="round" stroke-linejoin="round"/>
</svg>
