<svg width="19" height="20" viewBox="0 0 19 20" fill="none" xmlns="http://www.w3.org/2000/svg">
<path d="M3.85866 4.52486C3.08481 5.64427 2.66924 6.97234 2.66699 8.33319C2.66699 13.3332 9.33366 18.3332 9.33366 18.3332C10.8823 17.1138 12.2809 15.7151 13.5003 14.1665M15.317 11.2665C15.7485 10.3477 15.9814 9.34815 16.0003 8.33319C16.0003 6.56508 15.2979 4.86939 14.0477 3.61915C12.7975 2.3689 11.1018 1.66652 9.33366 1.66652C8.31614 1.66396 7.31196 1.89789 6.40033 2.34986" stroke="white" stroke-width="2" stroke-linecap="round" stroke-linejoin="round"/>
<path d="M6.94167 7.60817C6.86731 7.84256 6.83074 8.08729 6.83333 8.33317C6.83333 8.99621 7.09672 9.6321 7.56557 10.1009C8.03441 10.5698 8.67029 10.8332 9.33333 10.8332C9.57922 10.8358 9.82395 10.7992 10.0583 10.7248M11.75 7.70817C11.6394 7.27545 11.4148 6.88027 11.0998 6.56371C10.7847 6.24716 10.3905 6.0208 9.95833 5.90817M1 1.6665L17.6667 18.3332" stroke="white" stroke-width="2" stroke-linecap="round" stroke-linejoin="round"/>
</svg>
