<svg width="53" height="23" viewBox="0 0 53 23" fill="none" xmlns="http://www.w3.org/2000/svg">
<rect width="53" height="23" rx="8" fill="#68B2A0" fill-opacity="0.5"/>
<path d="M7.86563 15H9.43594V8.41406L11.1 15H12.8109L14.475 8.41406V15H16.0453V6.84375H13.5609L11.9672 13.0547L10.3266 6.84375H8.70938C8.475 6.84375 8.26406 6.9375 8.1 7.10156C7.93594 7.28906 7.86563 7.47656 7.86563 7.71094V15ZM21.5053 11.8125V12.3984C21.5053 12.8672 21.3647 13.2188 21.1303 13.4531C20.8491 13.7109 20.4975 13.8281 20.0756 13.8281C19.56 13.8281 19.3022 13.5938 19.2788 13.0781C19.2788 12.6094 19.5834 12.3281 20.2397 12.1875C20.7084 12.0938 21.1303 11.9766 21.5053 11.8125ZM21.8803 14.7188C22.6538 14.2969 23.0522 13.5469 23.0522 12.4688V10.3125C23.0053 9.14062 22.1147 8.55469 20.3803 8.55469C18.9038 8.55469 18.0834 9.14062 17.8959 10.3125H19.4897C19.56 10.0312 19.8881 9.86719 20.4506 9.86719C21.1069 9.86719 21.435 10.0547 21.4819 10.4062C21.4819 10.7578 21.1303 10.9688 20.4506 11.0391C19.4663 11.1328 18.7866 11.3438 18.3647 11.6719C17.9428 12 17.7084 12.4922 17.7084 13.125C17.7084 13.9688 18.0366 14.5312 18.6928 14.8594C19.1147 15.0938 19.6538 15.1641 20.2866 15.1172C20.9194 15.0703 21.4584 14.9531 21.8803 14.7188ZM24.7856 15H26.4028V11.6953C26.4028 10.7812 26.8481 10.3125 27.7388 10.3125H28.2778V8.64844H28.0434C25.9106 8.64844 24.8325 9.67969 24.7856 11.7188V15ZM31.5816 11.1328V7.61719C31.5816 7.40625 31.4878 7.21875 31.3472 7.07812C31.1831 6.9375 30.9956 6.84375 30.8081 6.84375H29.9878V15H31.5816V12.6797C31.5816 12.5156 31.6519 12.4219 31.8394 12.375C32.0269 12.375 32.2378 12.5625 32.4487 12.9141L33.5737 15H35.4956L33.2691 11.2266L35.4722 8.88281H33.5503L31.5816 11.1328ZM40.7681 13.0547C40.5338 13.0547 40.3697 13.1484 40.2291 13.2891C39.9009 13.5938 39.5728 13.7344 39.1978 13.7344C38.4009 13.7344 37.9791 13.2656 37.9322 12.2812H42.0338C42.1509 9.79688 41.2134 8.55469 39.1978 8.55469C37.2525 8.57812 36.2916 9.65625 36.2916 11.8125C36.2916 13.9688 37.2525 15.0938 39.1744 15.1406C39.8775 15.1406 40.4869 14.9766 41.0025 14.625C41.4244 14.2969 41.7525 13.7812 41.94 13.0547H40.7681ZM37.9556 11.1328C38.0728 10.2891 38.4713 9.86719 39.1744 9.86719C39.8541 9.86719 40.2525 10.2891 40.3463 11.1328H37.9556ZM46.2984 14.9297V13.7109H45.8063C45.4781 13.7109 45.3375 13.5938 45.3375 13.3125V9.79688H45.5016C45.7125 9.79688 45.9 9.72656 46.0641 9.58594C46.2047 9.44531 46.2984 9.23438 46.2984 9V8.64844H45.3375V7.64062C45.3375 7.42969 45.2438 7.24219 45.1031 7.07812C44.9391 6.9375 44.7516 6.84375 44.5641 6.84375H43.7438V13.7812C43.7203 14.4844 44.0016 14.8828 44.6109 14.9297C45.2203 14.9766 45.7828 14.9766 46.2984 14.9297Z" fill="#71AA9C"/>
</svg>
