<svg width="60" height="60" viewBox="0 0 60 60" fill="none" xmlns="http://www.w3.org/2000/svg">
<defs>
<linearGradient id="paint0_linear_793_6324" x1="56" y1="55" x2="2.5" y2="-2.97899e-06" gradientUnits="userSpaceOnUse">
<stop stop-color="#68B2A0"/>
<stop offset="1" stop-color="#89B6BF"/>
</linearGradient>
<clipPath id="clip0_793_6324">
<rect width="24.78" height="24" fill="white" transform="translate(18 18)"/>
</clipPath>
</defs>
<path d="M0 15C0 6.71573 6.71573 0 15 0H45C53.2843 0 60 6.71573 60 15V45C60 53.2843 53.2843 60 45 60H15C6.71573 60 0 53.2843 0 45V15Z" fill="url(#paint0_linear_793_6324)"/>
<g clip-path="url(#clip0_793_6324)">
<path d="M39.6803 21.3385H24.632L24.4868 20.7578C24.3255 20.0159 23.9626 19.4111 23.3981 18.9433C22.8336 18.4756 22.1642 18.2417 21.39 18.2417H19.0191C18.7287 18.2417 18.4868 18.3385 18.2933 18.532C18.0997 18.7256 18.0029 18.9836 18.0029 19.3062C18.0029 19.5965 18.0997 19.8385 18.2933 20.032C18.4868 20.2256 18.7287 20.3223 19.0191 20.3223H21.39C22.0029 20.3223 22.3578 20.5965 22.4545 21.1449L24.8255 33.532C25.0191 34.2094 25.3981 34.7578 25.9626 35.1772C26.5271 35.5965 27.1481 35.8062 27.8255 35.8062H37.5997C37.9223 35.8062 38.1803 35.7094 38.3739 35.5159C38.5674 35.3223 38.6642 35.0804 38.6642 34.7901C38.6642 34.0804 38.3094 33.7256 37.5997 33.7256H27.8255C27.3739 33.7256 27.0513 33.532 26.8578 33.1449L26.761 32.7094H37.1158C37.761 32.7094 38.3497 32.5159 38.882 32.1288C39.4142 31.7417 39.7771 31.2417 39.9707 30.6288L42.7771 24.6772V24.4352C42.7771 23.5643 42.4787 22.8304 41.882 22.2336C41.2852 21.6369 40.5513 21.3385 39.6803 21.3385ZM27.2933 30.6288H26.3739L25.0191 23.4191H27.2933V30.6288ZM31.4062 30.6288H29.3739V23.4191H31.4062V30.6288ZM35.5674 30.6288H33.4868V23.4191H35.5674V30.6288ZM38.132 29.8062V29.903C38.0352 30.2256 37.8578 30.4352 37.5997 30.532V23.4191H39.6803C40.261 23.4191 40.5997 23.6933 40.6965 24.2417L38.132 29.8062ZM30.39 38.903C30.39 39.4836 30.1884 39.9756 29.7852 40.3788C29.382 40.782 28.89 40.9836 28.3094 40.9836C27.761 40.9836 27.2852 40.782 26.882 40.3788C26.4787 39.9756 26.2771 39.4836 26.2771 38.903C26.2771 38.3223 26.4787 37.8304 26.882 37.4272C27.2852 37.024 27.761 36.8223 28.3094 36.8223C28.89 36.8223 29.382 37.024 29.7852 37.4272C30.1884 37.8304 30.39 38.3223 30.39 38.903ZM38.6642 38.903C38.6642 39.4836 38.4626 39.9756 38.0594 40.3788C37.6562 40.782 37.1642 40.9836 36.5836 40.9836C36.0029 40.9836 35.511 40.782 35.1078 40.3788C34.7045 39.9756 34.5029 39.4836 34.5029 38.903C34.5029 38.3223 34.7045 37.8304 35.1078 37.4272C35.511 37.024 36.0029 36.8223 36.5836 36.8223C37.1642 36.8223 37.6562 37.024 38.0594 37.4272C38.4626 37.8304 38.6642 38.3223 38.6642 38.903Z" fill="#F8F8F8"/>
</g>

</svg>
