<svg width="31" height="24" viewBox="0 0 31 24" fill="none" xmlns="http://www.w3.org/2000/svg">
<g clip-path="url(#clip0_1043_5299)">
<path d="M5.61576 23.8807V22.2922C5.61576 21.6832 5.24502 21.2861 4.60956 21.2861C4.2919 21.2861 3.9477 21.392 3.70938 21.7362C3.52414 21.445 3.25941 21.2861 2.86227 21.2861C2.59742 21.2861 2.33282 21.3655 2.12092 21.6567V21.3391H1.56494V23.8807H2.12092V22.4775C2.12092 22.0275 2.35923 21.8156 2.72997 21.8156C3.10046 21.8156 3.28595 22.0539 3.28595 22.4775V23.8807H3.84193V22.4775C3.84193 22.0275 4.10653 21.8156 4.45073 21.8156C4.82146 21.8156 5.00671 22.0539 5.00671 22.4775V23.8807H5.61576ZM13.8494 21.3391H12.9494V20.5713H12.3934V21.3391H11.8904V21.842H12.3933V23.007C12.3933 23.5895 12.6316 23.9336 13.2671 23.9336C13.5054 23.9336 13.77 23.8543 13.9555 23.7484L13.7965 23.2717C13.6377 23.3776 13.4524 23.4042 13.32 23.4042C13.0553 23.4042 12.9494 23.2453 12.9494 22.9805V21.842H13.8494V21.3391ZM18.5621 21.286C18.2445 21.286 18.0327 21.445 17.9003 21.6567V21.3391H17.3443V23.8807H17.9003V22.451C17.9003 22.0275 18.0855 21.7892 18.4297 21.7892C18.5356 21.7892 18.668 21.8157 18.7739 21.8421L18.9327 21.3127C18.8269 21.2861 18.668 21.2861 18.5621 21.2861V21.286ZM11.4403 21.5509C11.1754 21.3655 10.8048 21.2861 10.4077 21.2861C9.77234 21.2861 9.34878 21.6038 9.34878 22.1068C9.34878 22.5305 9.66645 22.7687 10.2224 22.8482L10.4872 22.8747C10.7784 22.9275 10.9372 23.007 10.9372 23.1394C10.9372 23.3247 10.7255 23.4571 10.3547 23.4571C9.98412 23.4571 9.69286 23.3247 9.50749 23.1924L9.24277 23.6159C9.53403 23.8277 9.93117 23.9336 10.3282 23.9336C11.0695 23.9336 11.4932 23.5895 11.4932 23.1129C11.4932 22.6628 11.149 22.4245 10.6195 22.3451L10.3547 22.3186C10.1164 22.2921 9.93117 22.2393 9.93117 22.0804C9.93117 21.8951 10.1164 21.7892 10.4077 21.7892C10.7255 21.7892 11.0431 21.9215 11.202 22.0009L11.4403 21.5509ZM26.2135 21.2861C25.8958 21.2861 25.684 21.445 25.5516 21.6567V21.3391H24.9956V23.8807H25.5516V22.451C25.5516 22.0275 25.7369 21.7892 26.081 21.7892C26.187 21.7892 26.3194 21.8157 26.4253 21.8421L26.5842 21.3127C26.4783 21.2861 26.3194 21.2861 26.2135 21.2861ZM19.1181 22.6099C19.1181 23.3776 19.6476 23.9336 20.4684 23.9336C20.839 23.9336 21.1037 23.8543 21.3684 23.6425L21.1037 23.1924C20.8919 23.3512 20.6802 23.4306 20.4418 23.4306C19.9918 23.4306 19.6741 23.1129 19.6741 22.6099C19.6741 22.1334 19.9918 21.8156 20.4418 21.7892C20.6802 21.7892 20.8919 21.8685 21.1037 22.0275L21.3684 21.5774C21.1037 21.3655 20.839 21.2861 20.4684 21.2861C19.6476 21.2861 19.1181 21.8421 19.1181 22.6099ZM24.2544 22.6099V21.3391H23.6984V21.6567C23.513 21.4186 23.2483 21.2861 22.9041 21.2861C22.1893 21.2861 21.6333 21.8421 21.6333 22.6099C21.6333 23.3776 22.1893 23.9336 22.9041 23.9336C23.2747 23.9336 23.5395 23.8013 23.6984 23.563V23.8807H24.2544V22.6099ZM22.2157 22.6099C22.2157 22.1598 22.5069 21.7892 22.9834 21.7892C23.4335 21.7892 23.7513 22.1334 23.7513 22.6099C23.7513 23.06 23.4335 23.4306 22.9834 23.4306C22.5069 23.404 22.2157 23.06 22.2157 22.6099ZM15.5704 21.2861C14.8291 21.2861 14.2995 21.8156 14.2995 22.6099C14.2995 23.4042 14.829 23.9336 15.5969 23.9336C15.9675 23.9336 16.3382 23.8277 16.6295 23.5895L16.3646 23.1924C16.1528 23.3512 15.8881 23.4571 15.6234 23.4571C15.2792 23.4571 14.935 23.2983 14.8555 22.8481H16.7354V22.6364C16.7619 21.8156 16.2853 21.2861 15.5703 21.2861H15.5704ZM15.5704 21.7626C15.9145 21.7626 16.153 21.9745 16.2058 22.3717H14.882C14.935 22.0275 15.1733 21.7626 15.5704 21.7626ZM29.3641 22.6099V20.333H28.8081V21.6567C28.6227 21.4186 28.358 21.2861 28.0138 21.2861C27.299 21.2861 26.743 21.8421 26.743 22.6099C26.743 23.3776 27.299 23.9336 28.0138 23.9336C28.3845 23.9336 28.6492 23.8013 28.8081 23.563V23.8807H29.3641V22.6099ZM27.3255 22.6099C27.3255 22.1598 27.6166 21.7892 28.0933 21.7892C28.5434 21.7892 28.861 22.1334 28.861 22.6099C28.861 23.06 28.5434 23.4306 28.0933 23.4306C27.6166 23.404 27.3255 23.06 27.3255 22.6099ZM8.73974 22.6099V21.3391H8.18376V21.6567C7.99839 21.4186 7.73367 21.2861 7.38946 21.2861C6.67465 21.2861 6.11867 21.8421 6.11867 22.6099C6.11867 23.3776 6.67465 23.9336 7.38946 23.9336C7.7602 23.9336 8.02492 23.8013 8.18376 23.563V23.8807H8.73974V22.6099ZM6.67465 22.6099C6.67465 22.1598 6.96591 21.7892 7.44241 21.7892C7.8925 21.7892 8.21029 22.1334 8.21029 22.6099C8.21029 23.06 7.8925 23.4306 7.44241 23.4306C6.96591 23.404 6.67465 23.06 6.67465 22.6099Z" fill="black"/>
<path d="M11.2549 2.03857H19.5946V17.0236H11.2549V2.03857Z" fill="#FF5F00"/>
<path d="M11.7845 9.53114C11.7845 6.48651 13.2141 3.78597 15.4115 2.03855C13.7967 0.767759 11.7581 0 9.53419 0C4.2654 0 0.00292969 4.26247 0.00292969 9.53114C0.00292969 14.7997 4.2654 19.0623 9.53407 19.0623C11.758 19.0623 13.7965 18.2945 15.4115 17.0236C13.2141 15.3027 11.7845 12.5758 11.7845 9.53114Z" fill="#EB001B"/>
<path d="M30.8466 9.53114C30.8466 14.7997 26.5841 19.0623 21.3155 19.0623C19.0915 19.0623 17.053 18.2945 15.438 17.0236C17.6619 15.2763 19.0651 12.5758 19.0651 9.53114C19.0651 6.48651 17.6354 3.78597 15.438 2.03855C17.0529 0.767759 19.0915 0 21.3155 0C26.5841 0 30.8467 4.28901 30.8467 9.53114H30.8466Z" fill="#F79E1B"/>
</g>
<defs>
<clipPath id="clip0_1043_5299">
<rect width="30.88" height="24" fill="white"/>
</clipPath>
</defs>
</svg>
