<svg width="24" height="24" viewBox="0 0 24 24" fill="none" xmlns="http://www.w3.org/2000/svg">
<path fill-rule="evenodd" clip-rule="evenodd" d="M12.0204 3C9.76188 3 7.70388 3.746 6.48638 4.3555C6.37638 4.4105 6.27388 4.4645 6.17838 4.5165C5.98938 4.6195 5.82838 4.7155 5.70038 4.8L7.08538 6.839L7.73738 7.0985C10.2854 8.384 13.7024 8.384 16.2509 7.0985L16.9909 6.7145L18.3009 4.8C18.0295 4.623 17.7473 4.46318 17.4559 4.3215C16.2449 3.7185 14.2364 3 12.0204 3ZM8.79888 5.308C8.30843 5.21622 7.82404 5.09467 7.34838 4.944C8.48888 4.4375 10.1889 3.9 12.0199 3.9C13.2884 3.9 14.4879 4.158 15.4799 4.485C14.3174 4.6485 13.0769 4.926 11.8949 5.2675C10.9649 5.5365 9.87788 5.5075 8.79888 5.308ZM16.7789 7.84L16.6564 7.902C13.8529 9.316 10.1349 9.316 7.33138 7.902L7.21538 7.843C3.00438 12.4635 -0.210624 20.9985 12.0204 20.9985C24.2504 20.9985 20.9569 12.304 16.7789 7.84ZM11.5004 12C11.2352 12 10.9808 12.1054 10.7933 12.2929C10.6057 12.4804 10.5004 12.7348 10.5004 13C10.5004 13.2652 10.6057 13.5196 10.7933 13.7071C10.9808 13.8946 11.2352 14 11.5004 14V12ZM12.5004 11V10.5H11.5004V11C10.9699 11 10.4612 11.2107 10.0862 11.5858C9.71109 11.9609 9.50038 12.4696 9.50038 13C9.50038 13.5304 9.71109 14.0391 10.0862 14.4142C10.4612 14.7893 10.9699 15 11.5004 15V17C11.2936 17.0001 11.0918 16.936 10.9229 16.8166C10.7541 16.6973 10.6263 16.5285 10.5574 16.3335C10.5132 16.2085 10.4212 16.1061 10.3015 16.0489C10.1819 15.9917 10.0444 15.9843 9.91938 16.0285C9.79433 16.0727 9.69194 16.1647 9.63474 16.2843C9.57754 16.404 9.57022 16.5415 9.61438 16.6665C9.7523 17.0565 10.0077 17.3941 10.3455 17.6329C10.6832 17.8718 11.0867 18 11.5004 18V18.5H12.5004V18C13.0308 18 13.5395 17.7893 13.9146 17.4142C14.2897 17.0391 14.5004 16.5304 14.5004 16C14.5004 15.4696 14.2897 14.9609 13.9146 14.5858C13.5395 14.2107 13.0308 14 12.5004 14V12C12.9354 12 13.3059 12.2775 13.4439 12.6665C13.4643 12.7301 13.4974 12.789 13.541 12.8397C13.5846 12.8903 13.638 12.9317 13.6979 12.9614C13.7578 12.9911 13.8231 13.0084 13.8898 13.0125C13.9565 13.0165 14.0234 13.0071 14.0864 12.9848C14.1495 12.9625 14.2074 12.9279 14.2568 12.8828C14.3062 12.8378 14.346 12.7833 14.374 12.7225C14.402 12.6618 14.4175 12.5961 14.4196 12.5293C14.4217 12.4624 14.4104 12.3959 14.3864 12.3335C14.2485 11.9435 13.993 11.6059 13.6553 11.3671C13.3175 11.1282 12.914 11 12.5004 11ZM12.5004 15V17C12.7656 17 13.0199 16.8946 13.2075 16.7071C13.395 16.5196 13.5004 16.2652 13.5004 16C13.5004 15.7348 13.395 15.4804 13.2075 15.2929C13.0199 15.1054 12.7656 15 12.5004 15Z" fill="#2C6976"/>
</svg>
