<svg width="8" height="12" viewBox="0 0 8 12" fill="none" xmlns="http://www.w3.org/2000/svg">
<path d="M0.314293 0.31571C0.214664 0.415135 0.135621 0.533234 0.0816906 0.663246C0.02776 0.793257 0 0.932628 0 1.07338C0 1.21414 0.02776 1.35351 0.0816906 1.48352C0.135621 1.61353 0.214664 1.73163 0.314293 1.83105L4.48418 6.00094L0.314293 10.1708C0.113346 10.3718 0.000455067 10.6443 0.000455067 10.9285C0.000455067 11.2127 0.113346 11.4852 0.314293 11.6862C0.51524 11.8871 0.787783 12 1.07197 12C1.35615 12 1.62869 11.8871 1.82964 11.6862L6.76257 6.75323C6.8622 6.65381 6.94124 6.53571 6.99517 6.4057C7.0491 6.27569 7.07686 6.13632 7.07686 5.99556C7.07686 5.85481 7.0491 5.71544 6.99517 5.58543C6.94124 5.45542 6.8622 5.33732 6.76257 5.23789L1.82964 0.304963C1.42125 -0.103428 0.733431 -0.103428 0.314293 0.31571Z" fill="white"/>
</svg>
