<svg width="22" height="22" viewBox="0 0 22 22" fill="none" xmlns="http://www.w3.org/2000/svg">
<path fill-rule="evenodd" clip-rule="evenodd" d="M0.5 11C0.5 13.7848 1.60625 16.4555 3.57538 18.4246C5.54451 20.3938 8.21523 21.5 11 21.5C13.7848 21.5 16.4555 20.3938 18.4246 18.4246C20.3938 16.4555 21.5 13.7848 21.5 11C21.5 8.21523 20.3938 5.54451 18.4246 3.57538C16.4555 1.60625 13.7848 0.5 11 0.5C8.21523 0.5 5.54451 1.60625 3.57538 3.57538C1.60625 5.54451 0.5 8.21523 0.5 11ZM19.7 11C19.7 13.3074 18.7834 15.5203 17.1518 17.1518C15.5203 18.7834 13.3074 19.7 11 19.7C8.69262 19.7 6.47974 18.7834 4.84817 17.1518C3.2166 15.5203 2.3 13.3074 2.3 11C2.3 8.69262 3.2166 6.47974 4.84817 4.84817C6.47974 3.2166 8.69262 2.3 11 2.3C13.3074 2.3 15.5203 3.2166 17.1518 4.84817C18.7834 6.47974 19.7 8.69262 19.7 11Z" fill="#F8F8F8"/>
<path fill-rule="evenodd" clip-rule="evenodd" d="M6.5 11.0001C6.5 16.4265 8.2892 20.9001 11 20.9001C13.7108 20.9001 15.5 16.4265 15.5 11.0001C15.5 5.5737 13.7108 1.1001 11 1.1001C8.2892 1.1001 6.5 5.5737 6.5 11.0001ZM13.7 11.0001C13.7 15.5145 12.266 19.1001 11 19.1001C9.734 19.1001 8.3 15.5145 8.3 11.0001C8.3 6.4857 9.734 2.9001 11 2.9001C12.266 2.9001 13.7 6.4857 13.7 11.0001Z" fill="#F8F8F8"/>
<path d="M3.3225 5.56047L4.5297 4.22607C4.6497 4.33407 4.7805 4.44207 4.9197 4.54647C6.4449 5.68887 8.8797 6.39447 11.5377 6.39447C13.8069 6.39447 15.9201 5.88207 17.4549 5.00487C17.8245 4.79367 18.1533 4.56447 18.4377 4.32087L19.6065 5.69007C19.216 6.02128 18.7949 6.3146 18.3489 6.56607C16.5297 7.60767 14.1081 8.19327 11.5377 8.19327C8.5113 8.19327 5.6997 7.37967 3.8397 5.98647C3.66085 5.85249 3.48826 5.71034 3.3225 5.56047ZM3.3225 16.4589L4.5297 17.7933C4.6497 17.6841 4.7805 17.5773 4.9197 17.4729C6.4449 16.3305 8.8797 15.6249 11.5377 15.6249C13.8069 15.6249 15.9201 16.1373 17.4549 17.0145C17.8245 17.2257 18.1533 17.4549 18.4377 17.6985L19.6065 16.3293C19.2155 15.9987 18.7945 15.7054 18.3489 15.4533C16.5297 14.4117 14.1081 13.8261 11.5377 13.8261C8.5113 13.8261 5.6997 14.6397 3.8397 16.0329C3.66084 16.1669 3.48826 16.309 3.3225 16.4589ZM1.1001 11.9001V10.1001H20.9001V11.9001H1.1001Z" fill="#F8F8F8"/>
</svg>
