<svg width="60" height="60" viewBox="0 0 60 60" fill="none" xmlns="http://www.w3.org/2000/svg">
<defs>
<linearGradient id="paint0_linear_793_6301" x1="56" y1="55" x2="2.5" y2="-2.97899e-06" gradientUnits="userSpaceOnUse">
<stop stop-color="#68B2A0"/>
<stop offset="1" stop-color="#89B6BF"/>
</linearGradient>
</defs>
<path d="M0 15C0 6.71573 6.71573 0 15 0H45C53.2843 0 60 6.71573 60 15V45C60 53.2843 53.2843 60 45 60H15C6.71573 60 0 53.2843 0 45V15Z" fill="url(#paint0_linear_793_6301)"/>
<path fill-rule="evenodd" clip-rule="evenodd" d="M19.5 30C19.5 32.7848 20.6062 35.4555 22.5754 37.4246C24.5445 39.3938 27.2152 40.5 30 40.5C32.7848 40.5 35.4555 39.3938 37.4246 37.4246C39.3938 35.4555 40.5 32.7848 40.5 30C40.5 27.2152 39.3938 24.5445 37.4246 22.5754C35.4555 20.6062 32.7848 19.5 30 19.5C27.2152 19.5 24.5445 20.6062 22.5754 22.5754C20.6062 24.5445 19.5 27.2152 19.5 30ZM38.7 30C38.7 32.3074 37.7834 34.5203 36.1518 36.1518C34.5203 37.7834 32.3074 38.7 30 38.7C27.6926 38.7 25.4797 37.7834 23.8482 36.1518C22.2166 34.5203 21.3 32.3074 21.3 30C21.3 27.6926 22.2166 25.4797 23.8482 23.8482C25.4797 22.2166 27.6926 21.3 30 21.3C32.3074 21.3 34.5203 22.2166 36.1518 23.8482C37.7834 25.4797 38.7 27.6926 38.7 30Z" fill="white"/>
<path fill-rule="evenodd" clip-rule="evenodd" d="M25.5 30.0001C25.5 35.4265 27.2892 39.9001 30 39.9001C32.7108 39.9001 34.5 35.4265 34.5 30.0001C34.5 24.5737 32.7108 20.1001 30 20.1001C27.2892 20.1001 25.5 24.5737 25.5 30.0001ZM32.7 30.0001C32.7 34.5145 31.266 38.1001 30 38.1001C28.734 38.1001 27.3 34.5145 27.3 30.0001C27.3 25.4857 28.734 21.9001 30 21.9001C31.266 21.9001 32.7 25.4857 32.7 30.0001Z" fill="white"/>
<path d="M22.3225 24.5605L23.5297 23.2261C23.6497 23.3341 23.7805 23.4421 23.9197 23.5465C25.4449 24.6889 27.8797 25.3945 30.5377 25.3945C32.8069 25.3945 34.9201 24.8821 36.4549 24.0049C36.8245 23.7937 37.1533 23.5645 37.4377 23.3209L38.6065 24.6901C38.216 25.0213 37.7949 25.3146 37.3489 25.5661C35.5297 26.6077 33.1081 27.1933 30.5377 27.1933C27.5113 27.1933 24.6997 26.3797 22.8397 24.9865C22.6608 24.8525 22.4883 24.7103 22.3225 24.5605ZM22.3225 35.4589L23.5297 36.7933C23.6497 36.6841 23.7805 36.5773 23.9197 36.4729C25.4449 35.3305 27.8797 34.6249 30.5377 34.6249C32.8069 34.6249 34.9201 35.1373 36.4549 36.0145C36.8245 36.2257 37.1533 36.4549 37.4377 36.6985L38.6065 35.3293C38.2155 34.9987 37.7945 34.7054 37.3489 34.4533C35.5297 33.4117 33.1081 32.8261 30.5377 32.8261C27.5113 32.8261 24.6997 33.6397 22.8397 35.0329C22.6608 35.1669 22.4883 35.309 22.3225 35.4589ZM20.1001 30.9001V29.1001H39.9001V30.9001H20.1001Z" fill="white"/>

</svg>
