<svg width="53" height="23" viewBox="0 0 53 23" fill="none" xmlns="http://www.w3.org/2000/svg">
<rect width="53" height="23" rx="8" fill="#68B2A0" fill-opacity="0.5"/>
<path d="M10.35 10.9219C10.35 10.0781 10.5375 9.39844 10.9359 8.88281C11.3109 8.41406 11.8734 8.15625 12.5766 8.15625C13.2797 8.15625 13.8188 8.41406 14.2406 8.88281C14.6156 9.375 14.8266 10.0547 14.8266 10.9219C14.8266 11.8359 14.6156 12.5156 14.2406 12.9844C13.8188 13.4766 13.2563 13.7109 12.5766 13.7109C11.8734 13.7109 11.3344 13.4766 10.9359 12.9844C10.5375 12.4922 10.35 11.8125 10.35 10.9219ZM8.68594 10.9219C8.68594 12.2344 9.0375 13.2422 9.74063 13.9922C10.3969 14.7422 11.3578 15.1172 12.5766 15.1172C13.7953 15.1172 14.7328 14.7422 15.4359 13.9922C16.1391 13.2422 16.4906 12.2344 16.4906 10.9219C16.4906 9.65625 16.1391 8.64844 15.4359 7.85156C14.7094 7.10156 13.7484 6.70312 12.5766 6.70312C11.4047 6.70312 10.4438 7.10156 9.74063 7.85156C9.0375 8.60156 8.68594 9.63281 8.68594 10.9219ZM23.685 15V11.2734C23.685 9.46875 22.7944 8.55469 20.9897 8.55469C19.1616 8.55469 18.2709 9.46875 18.2709 11.2734V15H19.8881V10.9453C19.8881 10.2891 20.2631 9.96094 20.9663 9.96094C21.6694 9.96094 22.0209 10.2891 22.0678 10.9453V14.2031C22.0678 14.7188 22.3256 14.9766 22.8647 15H23.685ZM25.3716 6.84375V15H26.9653V7.61719C26.9653 7.40625 26.8716 7.21875 26.7309 7.07812C26.5669 6.9375 26.3794 6.84375 26.1919 6.84375H25.3716ZM29.0737 6.84375V8.08594H30.6675V7.61719C30.6675 7.10156 30.4097 6.84375 29.8941 6.84375H29.0737ZM29.0737 8.64844V15H30.6675V9.42188C30.6675 8.90625 30.4097 8.64844 29.8941 8.64844H29.0737ZM37.9556 15V11.2734C37.9556 9.46875 37.065 8.55469 35.2603 8.55469C33.4322 8.55469 32.5416 9.46875 32.5416 11.2734V15H34.1588V10.9453C34.1588 10.2891 34.5338 9.96094 35.2369 9.96094C35.94 9.96094 36.2916 10.2891 36.3384 10.9453V14.2031C36.3384 14.7188 36.5963 14.9766 37.1353 15H37.9556ZM44.0719 13.0547C43.8375 13.0547 43.6734 13.1484 43.5328 13.2891C43.2047 13.5938 42.8766 13.7344 42.5016 13.7344C41.7047 13.7344 41.2828 13.2656 41.2359 12.2812H45.3375C45.4547 9.79688 44.5172 8.55469 42.5016 8.55469C40.5562 8.57812 39.5953 9.65625 39.5953 11.8125C39.5953 13.9688 40.5562 15.0938 42.4781 15.1406C43.1812 15.1406 43.7906 14.9766 44.3062 14.625C44.7281 14.2969 45.0562 13.7812 45.2437 13.0547H44.0719ZM41.2594 11.1328C41.3766 10.2891 41.775 9.86719 42.4781 9.86719C43.1578 9.86719 43.5562 10.2891 43.65 11.1328H41.2594Z" fill="#71AA9C"/>
</svg>
