<svg width="24" height="24" viewBox="0 0 24 24" fill="none" xmlns="http://www.w3.org/2000/svg">
<defs>
<linearGradient id="paint0_linear_793_6338" x1="22.4" y1="22" x2="1" y2="-1.1916e-06" gradientUnits="userSpaceOnUse">
<stop stop-color="#68B2A0"/>
<stop offset="1" stop-color="#89B6BF"/>
</linearGradient>
</defs>
<path d="M0 6C0 2.68629 2.68629 0 6 0H18C21.3137 0 24 2.68629 24 6V18C24 21.3137 21.3137 24 18 24H6C2.68629 24 0 21.3137 0 18V6Z" fill="url(#paint0_linear_793_6338)"/>
<path d="M16 16V18H8V16H7V18C7 18.2652 7.10536 18.5196 7.29289 18.7071C7.48043 18.8946 7.73478 19 8 19H16C16.2652 19 16.5196 18.8946 16.7071 18.7071C16.8946 18.5196 17 18.2652 17 18V16H16Z" fill="white"/>
<path d="M14.5 14.5L13.793 13.793L12.5 15.086V11H11.5V15.086L10.207 13.793L9.5 14.5L12 17L14.5 14.5ZM18 6V5H15V10H16V8H17.5V7H16V6H18ZM12.5 10H10.5V5H12.5C12.8977 5.0004 13.279 5.15856 13.5602 5.43978C13.8414 5.721 13.9996 6.1023 14 6.5V8.5C13.9996 8.8977 13.8414 9.279 13.5602 9.56022C13.279 9.84144 12.8977 9.9996 12.5 10ZM11.5 9H12.5C12.6326 8.99987 12.7597 8.94715 12.8534 8.85341C12.9471 8.75967 12.9999 8.63257 13 8.5V6.5C12.9999 6.36743 12.9471 6.24033 12.8534 6.14659C12.7597 6.05285 12.6326 6.00013 12.5 6H11.5V9ZM8.5 5H6V10H7V8.5H8.5C8.76509 8.4996 9.01922 8.39412 9.20667 8.20667C9.39412 8.01922 9.4996 7.76509 9.5 7.5V6C9.49974 5.73486 9.39429 5.48066 9.20681 5.29319C9.01934 5.10571 8.76514 5.00026 8.5 5ZM7 7.5V6H8.5L8.5005 7.5H7Z" fill="white"/>

</svg>
