<svg width="19" height="20" viewBox="0 0 19 20" fill="none" xmlns="http://www.w3.org/2000/svg">
<path d="M5.83333 17.5002H2.5C2.27899 17.5002 2.06702 17.4124 1.91074 17.2561C1.75446 17.0998 1.66667 16.8878 1.66667 16.6668V13.3335C1.66667 13.1125 1.57887 12.9005 1.42259 12.7442C1.26631 12.588 1.05435 12.5002 0.833333 12.5002C0.61232 12.5002 0.400358 12.588 0.244078 12.7442C0.0877973 12.9005 0 13.1125 0 13.3335L0 16.6668C0 17.3299 0.263392 17.9658 0.732233 18.4346C1.20107 18.9034 1.83696 19.1668 2.5 19.1668H5.83333C6.05435 19.1668 6.26631 19.079 6.42259 18.9228C6.57887 18.7665 6.66667 18.5545 6.66667 18.3335C6.66667 18.1125 6.57887 17.9005 6.42259 17.7442C6.26631 17.588 6.05435 17.5002 5.83333 17.5002ZM17.5 12.5002C17.279 12.5002 17.067 12.588 16.9107 12.7442C16.7545 12.9005 16.6667 13.1125 16.6667 13.3335V16.6668C16.6667 16.8878 16.5789 17.0998 16.4226 17.2561C16.2663 17.4124 16.0543 17.5002 15.8333 17.5002H12.5C12.279 17.5002 12.067 17.588 11.9107 17.7442C11.7545 17.9005 11.6667 18.1125 11.6667 18.3335C11.6667 18.5545 11.7545 18.7665 11.9107 18.9228C12.067 19.079 12.279 19.1668 12.5 19.1668H15.8333C16.4964 19.1668 17.1323 18.9034 17.6011 18.4346C18.0699 17.9658 18.3333 17.3299 18.3333 16.6668V13.3335C18.3333 13.1125 18.2455 12.9005 18.0893 12.7442C17.933 12.588 17.721 12.5002 17.5 12.5002ZM15.8333 0.833496H12.5C12.279 0.833496 12.067 0.921293 11.9107 1.07757C11.7545 1.23385 11.6667 1.44582 11.6667 1.66683C11.6667 1.88784 11.7545 2.0998 11.9107 2.25609C12.067 2.41237 12.279 2.50016 12.5 2.50016H15.8333C16.0543 2.50016 16.2663 2.58796 16.4226 2.74424C16.5789 2.90052 16.6667 3.11248 16.6667 3.3335V6.66683C16.6667 6.88784 16.7545 7.0998 16.9107 7.25609C17.067 7.41237 17.279 7.50016 17.5 7.50016C17.721 7.50016 17.933 7.41237 18.0893 7.25609C18.2455 7.0998 18.3333 6.88784 18.3333 6.66683V3.3335C18.3333 2.67045 18.0699 2.03457 17.6011 1.56573C17.1323 1.09689 16.4964 0.833496 15.8333 0.833496ZM0.833333 7.50016C1.05435 7.50016 1.26631 7.41237 1.42259 7.25609C1.57887 7.0998 1.66667 6.88784 1.66667 6.66683V3.3335C1.66667 3.11248 1.75446 2.90052 1.91074 2.74424C2.06702 2.58796 2.27899 2.50016 2.5 2.50016H5.83333C6.05435 2.50016 6.26631 2.41237 6.42259 2.25609C6.57887 2.0998 6.66667 1.88784 6.66667 1.66683C6.66667 1.44582 6.57887 1.23385 6.42259 1.07757C6.26631 0.921293 6.05435 0.833496 5.83333 0.833496H2.5C1.83696 0.833496 1.20107 1.09689 0.732233 1.56573C0.263392 2.03457 0 2.67045 0 3.3335L0 6.66683C0 6.88784 0.0877973 7.0998 0.244078 7.25609C0.400358 7.41237 0.61232 7.50016 0.833333 7.50016ZM7.5 4.16683H4.16667C3.94565 4.16683 3.73369 4.25463 3.57741 4.41091C3.42113 4.56719 3.33333 4.77915 3.33333 5.00016V8.3335C3.33333 8.55451 3.42113 8.76647 3.57741 8.92275C3.73369 9.07903 3.94565 9.16683 4.16667 9.16683H7.5C7.72101 9.16683 7.93298 9.07903 8.08926 8.92275C8.24554 8.76647 8.33333 8.55451 8.33333 8.3335V5.00016C8.33333 4.77915 8.24554 4.56719 8.08926 4.41091C7.93298 4.25463 7.72101 4.16683 7.5 4.16683ZM6.66667 7.50016H5V5.8335H6.66667V7.50016ZM10.8333 9.16683H14.1667C14.3877 9.16683 14.5996 9.07903 14.7559 8.92275C14.9122 8.76647 15 8.55451 15 8.3335V5.00016C15 4.77915 14.9122 4.56719 14.7559 4.41091C14.5996 4.25463 14.3877 4.16683 14.1667 4.16683H10.8333C10.6123 4.16683 10.4004 4.25463 10.2441 4.41091C10.0878 4.56719 10 4.77915 10 5.00016V8.3335C10 8.55451 10.0878 8.76647 10.2441 8.92275C10.4004 9.07903 10.6123 9.16683 10.8333 9.16683ZM11.6667 5.8335H13.3333V7.50016H11.6667V5.8335ZM7.5 10.8335H4.16667C3.94565 10.8335 3.73369 10.9213 3.57741 11.0776C3.42113 11.2339 3.33333 11.4458 3.33333 11.6668V15.0002C3.33333 15.2212 3.42113 15.4331 3.57741 15.5894C3.73369 15.7457 3.94565 15.8335 4.16667 15.8335H7.5C7.72101 15.8335 7.93298 15.7457 8.08926 15.5894C8.24554 15.4331 8.33333 15.2212 8.33333 15.0002V11.6668C8.33333 11.4458 8.24554 11.2339 8.08926 11.0776C7.93298 10.9213 7.72101 10.8335 7.5 10.8335ZM6.66667 14.1668H5V12.5002H6.66667V14.1668ZM10.8333 13.3335C11.0543 13.3335 11.2663 13.2457 11.4226 13.0894C11.5789 12.9331 11.6667 12.7212 11.6667 12.5002C11.8877 12.5002 12.0996 12.4124 12.2559 12.2561C12.4122 12.0998 12.5 11.8878 12.5 11.6668C12.5 11.4458 12.4122 11.2339 12.2559 11.0776C12.0996 10.9213 11.8877 10.8335 11.6667 10.8335H10.8333C10.6123 10.8335 10.4004 10.9213 10.2441 11.0776C10.0878 11.2339 10 11.4458 10 11.6668V12.5002C10 12.7212 10.0878 12.9331 10.2441 13.0894C10.4004 13.2457 10.6123 13.3335 10.8333 13.3335ZM14.1667 10.8335C13.9457 10.8335 13.7337 10.9213 13.5774 11.0776C13.4211 11.2339 13.3333 11.4458 13.3333 11.6668V14.1668C13.1123 14.1668 12.9004 14.2546 12.7441 14.4109C12.5878 14.5672 12.5 14.7792 12.5 15.0002C12.5 15.2212 12.5878 15.4331 12.7441 15.5894C12.9004 15.7457 13.1123 15.8335 13.3333 15.8335H14.1667C14.3877 15.8335 14.5996 15.7457 14.7559 15.5894C14.9122 15.4331 15 15.2212 15 15.0002V11.6668C15 11.4458 14.9122 11.2339 14.7559 11.0776C14.5996 10.9213 14.3877 10.8335 14.1667 10.8335ZM10.8333 14.1668C10.6685 14.1668 10.5074 14.2157 10.3704 14.3073C10.2333 14.3988 10.1265 14.529 10.0634 14.6813C10.0004 14.8335 9.98386 15.0011 10.016 15.1627C10.0482 15.3244 10.1275 15.4729 10.2441 15.5894C10.3606 15.706 10.5091 15.7853 10.6708 15.8175C10.8324 15.8496 11 15.8331 11.1522 15.7701C11.3045 15.707 11.4347 15.6002 11.5262 15.4631C11.6178 15.3261 11.6667 15.165 11.6667 15.0002C11.6667 14.7792 11.5789 14.5672 11.4226 14.4109C11.2663 14.2546 11.0543 14.1668 10.8333 14.1668Z" fill="white"/>
</svg>
