<svg width="17" height="16" viewBox="0 0 17 16" fill="none" xmlns="http://www.w3.org/2000/svg">
<path d="M9.62628 0.501593C8.62337 0.472952 7.62491 0.645762 6.68996 1.0098C5.75502 1.37383 4.90259 1.9217 4.18311 2.62097C3.46363 3.32025 2.89172 4.15674 2.50121 5.08094C2.1107 6.00514 1.90954 6.99828 1.90961 8.00159H0.417945C0.0429453 8.00159 -0.140388 8.45159 0.126279 8.70993L2.45128 11.0349C2.61795 11.2016 2.87628 11.2016 3.04295 11.0349L5.37628 8.70993C5.62628 8.45159 5.44295 8.00159 5.06795 8.00159H3.57628C3.57628 4.75993 6.24295 2.11826 9.49295 2.16826C12.5846 2.20993 15.1929 4.81826 15.2429 7.91826C15.2929 11.1766 12.6596 13.8349 9.40961 13.8349C8.08461 13.8349 6.86795 13.3933 5.88461 12.6433C5.55128 12.3933 5.08461 12.4183 4.79295 12.7183C4.43461 13.0766 4.46795 13.6683 4.86795 13.9683C6.17249 14.964 7.76846 15.5028 9.40961 15.5016C13.6263 15.5016 17.0263 12.0266 16.9096 7.79326C16.8013 3.87659 13.5346 0.609926 9.62628 0.501593ZM11.0763 7.16826V6.33493C11.0763 5.41826 10.3263 4.66826 9.40961 4.66826C8.49294 4.66826 7.74295 5.41826 7.74295 6.33493V7.16826C7.28461 7.16826 6.90961 7.54326 6.90961 8.00159V10.5016C6.90961 10.9599 7.28461 11.3349 7.74295 11.3349H11.0763C11.5346 11.3349 11.9096 10.9599 11.9096 10.5016V8.00159C11.9096 7.54326 11.5346 7.16826 11.0763 7.16826ZM10.2429 7.16826H8.57628V6.33493C8.57628 5.87659 8.95128 5.50159 9.40961 5.50159C9.86794 5.50159 10.2429 5.87659 10.2429 6.33493V7.16826Z" fill="white"/>
</svg>
