<svg width="20" height="20" viewBox="0 0 20 20" fill="none" xmlns="http://www.w3.org/2000/svg">
<path d="M10.8333 17.5C9.80556 17.5 8.84389 17.3089 7.94833 16.9267C7.05222 16.545 6.26389 16.0208 5.58333 15.3542L6.77083 14.1667C7.29861 14.6806 7.90972 15.0867 8.60417 15.385C9.29861 15.6839 10.0417 15.8333 10.8333 15.8333C12.4444 15.8333 13.8194 15.2639 14.9583 14.125C16.0972 12.9861 16.6667 11.6111 16.6667 10C16.6667 8.38889 16.0972 7.01389 14.9583 5.875C13.8194 4.73611 12.4444 4.16667 10.8333 4.16667C9.22222 4.16667 7.84722 4.73611 6.70833 5.875C5.56944 7.01389 5 8.38889 5 10V10.1458L6.52083 8.625L7.70833 9.79167L4.16667 13.3333L0.625 9.79167L1.8125 8.625L3.33333 10.1667V10C3.33333 8.95833 3.53139 7.9825 3.9275 7.0725C4.32306 6.16306 4.85778 5.37139 5.53167 4.6975C6.205 4.02417 6.99667 3.48944 7.90667 3.09333C8.81611 2.69778 9.79167 2.5 10.8333 2.5C11.875 2.5 12.8508 2.69778 13.7608 3.09333C14.6703 3.48944 15.4619 4.02417 16.1358 4.6975C16.8092 5.37139 17.3439 6.16306 17.74 7.0725C18.1356 7.9825 18.3333 8.95833 18.3333 10C18.3333 12.0833 17.6042 13.8542 16.1458 15.3125C14.6875 16.7708 12.9167 17.5 10.8333 17.5ZM8.33333 13.3333V9.16667H9.16667V8.33333C9.16667 7.875 9.33 7.4825 9.65667 7.15583C9.98278 6.82972 10.375 6.66667 10.8333 6.66667C11.2917 6.66667 11.6842 6.82972 12.0108 7.15583C12.3369 7.4825 12.5 7.875 12.5 8.33333V9.16667H13.3333V13.3333H8.33333ZM10 9.16667H11.6667V8.33333C11.6667 8.09722 11.5869 7.89917 11.4275 7.73917C11.2675 7.57972 11.0694 7.5 10.8333 7.5C10.5972 7.5 10.3994 7.57972 10.24 7.73917C10.08 7.89917 10 8.09722 10 8.33333V9.16667Z" fill="#2C6976"/>
</svg>
