<svg width="28" height="28" viewBox="0 0 28 28" fill="none" xmlns="http://www.w3.org/2000/svg">
<path d="M0 8C0 3.58172 3.58172 0 8 0H20C24.4183 0 28 3.58172 28 8V20C28 24.4183 24.4183 28 20 28H8C3.58172 28 0 24.4183 0 20V8Z" fill="#2C6976"/>
<path d="M14.7111 13.0222C12.6933 12.4978 12.0444 11.9556 12.0444 11.1111C12.0444 10.1422 12.9422 9.46667 14.4444 9.46667C15.7067 9.46667 16.3378 9.94667 16.5689 10.7111C16.6756 11.0667 16.9689 11.3333 17.3422 11.3333H17.6089C18.1956 11.3333 18.6133 10.7556 18.4089 10.2044C18.0356 9.15556 17.1644 8.28444 15.7778 7.94667V7.33333C15.7778 6.59556 15.1822 6 14.4444 6C13.7067 6 13.1111 6.59556 13.1111 7.33333V7.92C11.3867 8.29333 10 9.41333 10 11.1289C10 13.1822 11.6978 14.2044 14.1778 14.8C16.4 15.3333 16.8444 16.1156 16.8444 16.9422C16.8444 17.5556 16.4089 18.5333 14.4444 18.5333C12.9778 18.5333 12.2222 18.0089 11.9289 17.2622C11.7956 16.9156 11.4933 16.6667 11.1289 16.6667H10.88C10.2844 16.6667 9.86667 17.2711 10.0889 17.8222C10.5956 19.0578 11.7778 19.7867 13.1111 20.0711V20.6667C13.1111 21.4044 13.7067 22 14.4444 22C15.1822 22 15.7778 21.4044 15.7778 20.6667V20.0889C17.5111 19.76 18.8889 18.7556 18.8889 16.9333C18.8889 14.4089 16.7289 13.5467 14.7111 13.0222Z" fill="#F8F8F8"/>
</svg>
