<svg width="28" height="28" viewBox="0 0 28 28" fill="none" xmlns="http://www.w3.org/2000/svg">
<path d="M0 8C0 3.58172 3.58172 0 8 0H20C24.4183 0 28 3.58172 28 8V20C28 24.4183 24.4183 28 20 28H8C3.58172 28 0 24.4183 0 20V8Z" fill="#2C6976"/>
<path d="M21.9842 20.6825L18.8675 17.575C19.8731 16.2939 20.4187 14.7119 20.4167 13.0833C20.4167 11.6329 19.9866 10.2151 19.1808 9.00915C18.375 7.80319 17.2297 6.86326 15.8897 6.30822C14.5497 5.75318 13.0752 5.60795 11.6527 5.89091C10.2301 6.17387 8.92347 6.8723 7.89789 7.89789C6.8723 8.92347 6.17387 10.2301 5.89091 11.6527C5.60795 13.0752 5.75318 14.5497 6.30822 15.8897C6.86326 17.2297 7.80319 18.375 9.00915 19.1808C10.2151 19.9866 11.6329 20.4167 13.0833 20.4167C14.7119 20.4187 16.2939 19.8731 17.575 18.8675L20.6825 21.9842C20.7677 22.0701 20.8691 22.1383 20.9808 22.1848C21.0925 22.2314 21.2123 22.2553 21.3333 22.2553C21.4543 22.2553 21.5742 22.2314 21.6859 22.1848C21.7976 22.1383 21.899 22.0701 21.9842 21.9842C22.0701 21.899 22.1383 21.7976 22.1848 21.6859C22.2314 21.5742 22.2553 21.4543 22.2553 21.3333C22.2553 21.2123 22.2314 21.0925 22.1848 20.9808C22.1383 20.8691 22.0701 20.7677 21.9842 20.6825ZM7.58334 13.0833C7.58334 11.9955 7.90591 10.9322 8.51025 10.0277C9.1146 9.12323 9.97358 8.41828 10.9786 8.002C11.9836 7.58572 13.0894 7.4768 14.1563 7.68902C15.2232 7.90124 16.2032 8.42506 16.9724 9.19425C17.7416 9.96344 18.2654 10.9434 18.4777 12.0103C18.6899 13.0772 18.581 14.1831 18.1647 15.1881C17.7484 16.1931 17.0434 17.0521 16.139 17.6564C15.2345 18.2608 14.1711 18.5833 13.0833 18.5833C11.6246 18.5833 10.2257 18.0039 9.19425 16.9724C8.1628 15.941 7.58334 14.542 7.58334 13.0833Z" fill="#F8F8F8"/>
</svg>
