<svg width="25" height="24" viewBox="0 0 25 24" fill="none" xmlns="http://www.w3.org/2000/svg">
<g clip-path="url(#clip0_876_5862)">
<path d="M21.7902 3.33872H6.74183L6.59666 2.75807C6.43537 2.01614 6.07247 1.4113 5.50795 0.943556C4.94344 0.475814 4.27408 0.241943 3.49989 0.241943H1.12892C0.838599 0.241943 0.596664 0.338718 0.403116 0.532266C0.209567 0.725814 0.112793 0.983879 0.112793 1.30646C0.112793 1.59678 0.209567 1.83872 0.403116 2.03227C0.596664 2.22581 0.838599 2.32259 1.12892 2.32259H3.49989C4.11279 2.32259 4.46763 2.59678 4.56441 3.14517L6.93537 15.5323C7.12892 16.2097 7.50795 16.7581 8.07247 17.1774C8.63699 17.5968 9.25795 17.8065 9.93537 17.8065H19.7096C20.0321 17.8065 20.2902 17.7097 20.4838 17.5161C20.6773 17.3226 20.7741 17.0807 20.7741 16.7903C20.7741 16.0807 20.4192 15.7258 19.7096 15.7258H9.93537C9.48376 15.7258 9.16118 15.5323 8.96763 15.1452L8.87086 14.7097H19.2257C19.8709 14.7097 20.4596 14.5161 20.9918 14.129C21.5241 13.7419 21.887 13.2419 22.0805 12.629L24.887 6.67743V6.43549C24.887 5.56452 24.5886 4.83065 23.9918 4.23388C23.3951 3.6371 22.6612 3.33872 21.7902 3.33872ZM9.40312 12.629H8.48376L7.12892 5.41936H9.40312V12.629ZM13.516 12.629H11.4838V5.41936H13.516V12.629ZM17.6773 12.629H15.5967V5.41936H17.6773V12.629ZM20.2418 11.8065V11.9032C20.1451 12.2258 19.9676 12.4355 19.7096 12.5323V5.41936H21.7902C22.3709 5.41936 22.7096 5.69356 22.8063 6.24194L20.2418 11.8065ZM12.4999 20.9032C12.4999 21.4839 12.2983 21.9758 11.8951 22.379C11.4918 22.7823 10.9999 22.9839 10.4192 22.9839C9.87086 22.9839 9.39505 22.7823 8.99183 22.379C8.5886 21.9758 8.38699 21.4839 8.38699 20.9032C8.38699 20.3226 8.5886 19.8307 8.99183 19.4274C9.39505 19.0242 9.87086 18.8226 10.4192 18.8226C10.9999 18.8226 11.4918 19.0242 11.8951 19.4274C12.2983 19.8307 12.4999 20.3226 12.4999 20.9032ZM20.7741 20.9032C20.7741 21.4839 20.5725 21.9758 20.1692 22.379C19.766 22.7823 19.2741 22.9839 18.6934 22.9839C18.1128 22.9839 17.6209 22.7823 17.2176 22.379C16.8144 21.9758 16.6128 21.4839 16.6128 20.9032C16.6128 20.3226 16.8144 19.8307 17.2176 19.4274C17.6209 19.0242 18.1128 18.8226 18.6934 18.8226C19.2741 18.8226 19.766 19.0242 20.1692 19.4274C20.5725 19.8307 20.7741 20.3226 20.7741 20.9032Z" fill="#F8F8F8"/>
</g>
<defs>
<clipPath id="clip0_876_5862">
<rect width="24.78" height="24" fill="white" transform="translate(0.109863)"/>
</clipPath>
</defs>
</svg>
