<svg width="52" height="20" viewBox="0 0 52 20" fill="none" xmlns="http://www.w3.org/2000/svg">
<path d="M0.916016 11.168C0.986328 13.8398 2.63867 15.1758 5.87305 15.1758C8.9668 15.1758 10.584 13.9805 10.7246 11.5898C10.7949 10.043 10.127 9.05859 8.79102 8.56641C7.73633 8.21484 6.78711 7.93359 5.87305 7.72266C4.25586 7.37109 3.48242 6.80859 3.48242 6.03516C3.51758 5.12109 4.18555 4.62891 5.48633 4.59375C6.54102 4.59375 7.2793 4.94531 7.70117 5.64844C7.91211 6.14062 8.29883 6.35156 8.82617 6.35156H10.2324C10.0918 3.82031 8.58008 2.55469 5.69727 2.55469C2.67383 2.55469 1.12695 3.82031 1.0918 6.38672C1.0918 8.00391 2.28711 9.12891 4.67773 9.72656C5.55664 9.97266 6.36523 10.1836 7.10352 10.3945C7.8418 10.6055 8.22852 11.0273 8.22852 11.5898C8.22852 12.6094 7.45508 13.1016 5.87305 13.1016C4.25586 13.1016 3.41211 12.4688 3.3418 11.168H0.916016ZM14.3457 9.19922V3.92578C14.3457 3.60938 14.2051 3.32812 13.9941 3.11719C13.748 2.90625 13.4668 2.76562 13.1855 2.76562H11.9551V15H14.3457V11.5195C14.3457 11.2734 14.4512 11.1328 14.7324 11.0625C15.0137 11.0625 15.3301 11.3438 15.6465 11.8711L17.334 15H20.2168L16.877 9.33984L20.1816 5.82422H17.2988L14.3457 9.19922ZM20.7441 2.76562V4.62891H23.1348V3.92578C23.1348 3.15234 22.748 2.76562 21.9746 2.76562H20.7441ZM20.7441 5.47266V15H23.1348V6.63281C23.1348 5.85938 22.748 5.47266 21.9746 5.47266H20.7441ZM26.8965 17.5312C26.8965 18.3398 26.4746 18.7266 25.7012 18.7266H24.5059V9.62109C24.6113 6.80859 26.0879 5.36719 28.9707 5.36719C31.9238 5.36719 33.4004 6.98438 33.4004 10.1836C33.4004 13.418 32.1348 15.1055 29.6035 15.1758C28.4082 15.1758 27.4941 14.6836 26.8965 13.6992V17.5312ZM30.9395 10.2891C30.9395 8.39062 30.2363 7.40625 28.9004 7.40625C27.5293 7.40625 26.8613 8.39062 26.8965 10.2891C26.9668 12.1172 27.6348 13.0312 28.9355 13.0312C30.2012 13.0312 30.8691 12.1172 30.9395 10.2891Z" fill="white"/>
<path d="M39 10.5C38.7239 10.5 38.5 10.7239 38.5 11C38.5 11.2761 38.7239 11.5 39 11.5V10.5ZM51.3536 11.3536C51.5488 11.1583 51.5488 10.8417 51.3536 10.6464L48.1716 7.46447C47.9763 7.2692 47.6597 7.2692 47.4645 7.46447C47.2692 7.65973 47.2692 7.97631 47.4645 8.17157L50.2929 11L47.4645 13.8284C47.2692 14.0237 47.2692 14.3403 47.4645 14.5355C47.6597 14.7308 47.9763 14.7308 48.1716 14.5355L51.3536 11.3536ZM39 11.5H51V10.5H39V11.5Z" fill="white"/>
</svg>
