<svg width="54" height="22" viewBox="0 0 54 22" fill="none" xmlns="http://www.w3.org/2000/svg">
<path d="M1.12891 12.7422C1.20703 15.7109 3.04297 17.1953 6.63672 17.1953C10.0742 17.1953 11.8711 15.8672 12.0273 13.2109C12.1055 11.4922 11.3633 10.3984 9.87891 9.85156C8.70703 9.46094 7.65234 9.14844 6.63672 8.91406C4.83984 8.52344 3.98047 7.89844 3.98047 7.03906C4.01953 6.02344 4.76172 5.47656 6.20703 5.4375C7.37891 5.4375 8.19922 5.82812 8.66797 6.60938C8.90234 7.15625 9.33203 7.39062 9.91797 7.39062H11.4805C11.3242 4.57812 9.64453 3.17188 6.44141 3.17188C3.08203 3.17188 1.36328 4.57812 1.32422 7.42969C1.32422 9.22656 2.65234 10.4766 5.30859 11.1406C6.28516 11.4141 7.18359 11.6484 8.00391 11.8828C8.82422 12.1172 9.25391 12.5859 9.25391 13.2109C9.25391 14.3438 8.39453 14.8906 6.63672 14.8906C4.83984 14.8906 3.90234 14.1875 3.82422 12.7422H1.12891ZM16.0508 10.5547V4.69531C16.0508 4.34375 15.8945 4.03125 15.6602 3.79688C15.3867 3.5625 15.0742 3.40625 14.7617 3.40625H13.3945V17H16.0508V13.1328C16.0508 12.8594 16.168 12.7031 16.4805 12.625C16.793 12.625 17.1445 12.9375 17.4961 13.5234L19.3711 17H22.5742L18.8633 10.7109L22.5352 6.80469H19.332L16.0508 10.5547ZM23.1602 3.40625V5.47656H25.8164V4.69531C25.8164 3.83594 25.3867 3.40625 24.5273 3.40625H23.1602ZM23.1602 6.41406V17H25.8164V7.70312C25.8164 6.84375 25.3867 6.41406 24.5273 6.41406H23.1602ZM29.9961 19.8125C29.9961 20.7109 29.5273 21.1406 28.668 21.1406H27.3398V11.0234C27.457 7.89844 29.0977 6.29688 32.3008 6.29688C35.582 6.29688 37.2227 8.09375 37.2227 11.6484C37.2227 15.2422 35.8164 17.1172 33.0039 17.1953C31.6758 17.1953 30.6602 16.6484 29.9961 15.5547V19.8125ZM34.4883 11.7656C34.4883 9.65625 33.707 8.5625 32.2227 8.5625C30.6992 8.5625 29.957 9.65625 29.9961 11.7656C30.0742 13.7969 30.8164 14.8125 32.2617 14.8125C33.668 14.8125 34.4102 13.7969 34.4883 11.7656Z" fill="#333333"/>
<path d="M41 10.5C40.7239 10.5 40.5 10.7239 40.5 11C40.5 11.2761 40.7239 11.5 41 11.5V10.5ZM53.3536 11.3536C53.5488 11.1583 53.5488 10.8417 53.3536 10.6464L50.1716 7.46447C49.9763 7.2692 49.6597 7.2692 49.4645 7.46447C49.2692 7.65973 49.2692 7.97631 49.4645 8.17157L52.2929 11L49.4645 13.8284C49.2692 14.0237 49.2692 14.3403 49.4645 14.5355C49.6597 14.7308 49.9763 14.7308 50.1716 14.5355L53.3536 11.3536ZM41 11.5H53V10.5H41V11.5Z" fill="#333333"/>
</svg>
