<svg width="54" height="18" viewBox="0 0 54 18" fill="none" xmlns="http://www.w3.org/2000/svg">
<path d="M20.4625 0.604732L13.4063 17.438H8.80295L5.33053 4.00347C5.12 3.17799 4.93705 2.87421 4.29642 2.52515C3.24926 1.95631 1.52 1.42431 0 1.09336L0.102526 0.604732H7.5139C8.45705 0.604732 9.30632 1.23273 9.52232 2.3201L11.3571 12.0618L15.8867 0.604732H20.4625ZM26.6857 0.604732L23.0851 17.438H18.7297L22.3307 0.604732H26.6857ZM38.4996 11.942C38.5177 7.5001 32.3577 7.25357 32.3979 5.26894C32.4126 4.66557 32.9874 4.02326 34.2455 3.85905C34.8686 3.77842 36.5903 3.71421 38.5404 4.61273L39.3034 1.04094C38.2556 0.661995 36.9072 0.297363 35.2299 0.297363C30.9246 0.297363 27.8962 2.5841 27.872 5.86115C27.8438 8.28515 30.0352 9.6361 31.6832 10.4435C33.3806 11.2679 33.9499 11.7978 33.9421 12.5346C33.9299 13.6641 32.5863 14.1641 31.3373 14.1826C29.1469 14.2174 27.8773 13.5906 26.8644 13.1188L26.0739 16.8089C27.0928 17.2759 28.9707 17.6816 30.9158 17.7022C35.4926 17.7022 38.4861 15.4416 38.4996 11.942ZM49.868 17.438H53.8947L50.3768 0.604732H46.6617C45.8238 0.604732 45.1196 1.09105 44.8072 1.83863L38.2724 17.438H42.8457L43.7528 14.9235H49.3402L49.868 17.438ZM45.007 11.474L47.3 5.15252L48.6173 11.474H45.007Z" fill="#1A1F71"/>
</svg>
